<svg width="16" height="11" viewBox="0 0 16 11" fill="none" xmlns="http://www.w3.org/2000/svg">
<path d="M15.7656 5.36719C14.2891 2.46875 11.3359 0.5 8 0.5C4.63672 0.5 1.68359 2.46875 0.207031 5.36719C0.152344 5.47656 0.125 5.64062 0.125 5.77734C0.125 5.88672 0.152344 6.05078 0.207031 6.16016C1.68359 9.05859 4.63672 11 8 11C11.3359 11 14.2891 9.05859 15.7656 6.16016C15.8203 6.05078 15.8477 5.88672 15.8477 5.75C15.8477 5.64062 15.8203 5.47656 15.7656 5.36719ZM8 9.6875C5.8125 9.6875 4.0625 7.9375 4.0625 5.75C4.0625 3.58984 5.8125 1.8125 8 1.8125C10.1602 1.8125 11.9375 3.58984 11.9375 5.75V5.77734C11.9375 7.9375 10.1602 9.6875 8 9.6875ZM8 3.125C7.78125 3.15234 7.48047 3.17969 7.28906 3.23438C7.42578 3.42578 7.5625 3.78125 7.5625 4.02734C7.5625 4.73828 6.96094 5.3125 6.25 5.3125C6.00391 5.3125 5.64844 5.20312 5.45703 5.06641C5.40234 5.25781 5.375 5.55859 5.375 5.75C5.375 7.19922 6.55078 8.375 8 8.375C9.44922 8.375 10.625 7.19922 10.625 5.75C10.625 4.30078 9.44922 3.125 8 3.125Z" fill="#1F468F"/>
</svg>
