<svg width="18" height="12" viewBox="0 0 18 12" fill="none" xmlns="http://www.w3.org/2000/svg">
<g clip-path="url(#clip0)">
<path d="M0 0.000488281H18V12H0V0.000488281Z" fill="#F0F0F0"/>
<path d="M0 0.000488281H18V1.71475H0V0.000488281Z" fill="#D60A2E"/>
<path d="M0 3.42871H18V5.14297H0V3.42871Z" fill="#D60A2E"/>
<path d="M0 6.85693H18V8.5712H0V6.85693Z" fill="#D60A2E"/>
<path d="M0 10.2856H18V11.9999H0V10.2856Z" fill="#D60A2E"/>
<path d="M0 0.000488281H8.36533V5.1431H0V0.000488281Z" fill="#0B55B1"/>
<path d="M6.40382 2.79074L5.79926 2.44382L6.20651 1.87775L5.54467 2.10914L5.34424 1.49756L5.14382 2.10914L4.48198 1.87775L4.88923 2.44382L4.28467 2.79074L4.96573 2.82103L4.87019 3.50263L5.34424 3.0036L5.8183 3.50263L5.72294 2.82103L6.40382 2.79074Z" fill="#FED953"/>
<path d="M4.45735 3.8934C4.25329 3.8935 4.05172 3.8504 3.86714 3.76718C3.68256 3.68396 3.51953 3.56269 3.38976 3.41208C3.25999 3.26146 3.1667 3.08524 3.11658 2.89606C3.06647 2.70689 3.06077 2.50944 3.0999 2.31791C3.13904 2.12638 3.22202 1.9455 3.34291 1.78828C3.4638 1.63105 3.61959 1.50137 3.7991 1.40854C3.9786 1.31572 4.17737 1.26205 4.38114 1.2514C4.5849 1.24074 4.7886 1.27336 4.97762 1.34692C4.72626 1.11463 4.40897 0.958239 4.0653 0.897241C3.72162 0.836244 3.36678 0.873337 3.045 1.0039C2.72322 1.13446 2.44875 1.35271 2.2558 1.63144C2.06285 1.91017 1.95996 2.23705 1.95996 2.57133C1.95996 2.9056 2.06285 3.23248 2.2558 3.51122C2.44875 3.78995 2.72322 4.0082 3.045 4.13876C3.36678 4.26932 3.72162 4.30641 4.0653 4.24542C4.40897 4.18442 4.72626 4.02803 4.97762 3.79574C4.81245 3.86022 4.63576 3.89338 4.45735 3.8934Z" fill="#FED953"/>
</g>
<defs>
<clipPath id="clip0">
<rect width="18" height="12" fill="white"/>
</clipPath>
</defs>
</svg>
