<svg width="60" height="60" viewBox="0 0 60 60" fill="none" xmlns="http://www.w3.org/2000/svg">
<path d="M42 27H43C49.6274 27 55 32.3726 55 39C55 45.6274 49.6274 51 43 51H41C34.3726 51 29 45.6274 29 39H42V27Z" fill="#E1B87C"/>
<path d="M42 39V27H43C49.6274 27 55 32.3726 55 39V39M42 39H29V39C29 45.6274 34.3726 51 41 51H43C49.6274 51 55 45.6274 55 39V39M42 39H55" stroke="#1B3667" stroke-width="2" stroke-linecap="round" stroke-linejoin="round"/>
<circle cx="37" cy="56" r="3" fill="#E1B87C" stroke="#1B3667" stroke-width="2"/>
<circle cx="47" cy="56" r="3" fill="#E1B87C" stroke="#1B3667" stroke-width="2"/>
<path d="M9 31V23.5C9 19.3579 12.3579 16 16.5 16V16C20.6421 16 24 19.3579 24 23.5V31" stroke="#1B3667" stroke-width="2" stroke-linecap="round" stroke-linejoin="round"/>
<path d="M13 33L8 47H14M13 33H20M13 33V23.5C13 21.567 14.567 20 16.5 20V20C18.433 20 20 21.567 20 23.5V33M20 33L25 47H19M14 47V59M14 47H19M19 47V59" stroke="#1B3667" stroke-width="2" stroke-linecap="round" stroke-linejoin="round"/>
<circle cx="16.5" cy="7.5" r="6.5" stroke="#1B3667" stroke-width="2"/>
<path d="M10.5 9.99907C7.57829 9.8584 6.78908 10.8623 5.5 14C8.90037 14.8943 10.0226 14.7756 12 12.4991" stroke="#1B3667" stroke-width="2" stroke-linecap="round" stroke-linejoin="round"/>
<path d="M12 12C16.4775 8.84947 17.9732 6.62782 19 2" stroke="#1B3667" stroke-width="2"/>
</svg>
