<svg id="Слой_2" data-name="Слой 2" xmlns="http://www.w3.org/2000/svg" viewBox="0 0 31.18 31.18"><defs><style>.cls-1{fill:#043673;}.cls-2{fill:#f1bc6b;}</style></defs><title>Mybesthelper icon</title><path class="cls-1" d="M5.82,26.73l.2.19q.36.3.72.57l.38.28h0c-.06-.72-.1-1.45-.1-2.18,0-.09,0-.18,0-.27H5.75l-.19,0-1,0V17.06l.05-1,.92,0v-.37l0-1,1-.06.56,0A8.87,8.87,0,0,1,9.39,15a11.77,11.77,0,0,1,3-3.92,4.54,4.54,0,0,1-1-2.81A4.6,4.6,0,1,1,19.7,11c3.21,2.31,4.95,9.12,4.95,14.58,0,.65,0,1.31-.08,2l.1-.07c.24-.18.48-.37.71-.57s.14-.13.21-.19a14.83,14.83,0,0,0,4.81-8.84,14.19,14.19,0,0,0,.19-2.27,14.89,14.89,0,0,0-29.78,0A14.19,14.19,0,0,0,1,17.89H1A14.83,14.83,0,0,0,5.82,26.73Z"/><path class="cls-2" d="M19.2,11.58a4.61,4.61,0,0,1-3.14,1.25,4.53,4.53,0,0,1-3.12-1.24,10.93,10.93,0,0,0-2.84,3.62,4.65,4.65,0,0,1,2.05,1.51,4.07,4.07,0,0,1,.94-.91l0-.08h0v.07a7.53,7.53,0,0,1,4.21-1.17l.66,0,1,.06-.05,1,0,.35.87,0v3.36a48.1,48.1,0,0,1,1.95,9.76,15,15,0,0,0,2.05-1.11c.08-.84.12-1.67.12-2.51C23.9,19.48,21.85,13.43,19.2,11.58Z"/><path class="cls-2" d="M10.14,26a4,4,0,0,0-2.34-.62c0,.09,0,.17,0,.26,0,.9,0,1.8.13,2.7a15.53,15.53,0,0,0,2,1c.09-1.08.22-2.16.38-3.22Z"/><path class="cls-2" d="M20.81,28.06l-1-5.9V25.4l-1,0-.23,0H17.16a4.88,4.88,0,0,0-3,.63l-.28.23H11.24l-.36,2c0,.49,0,1,0,1.48a14.76,14.76,0,0,0,4.86.83,14.94,14.94,0,0,0,5.16-.92C20.85,29.08,20.83,28.57,20.81,28.06Z"/><path class="cls-2" d="M16.68,9.12a1.65,1.65,0,0,1,.32.07,1.42,1.42,0,0,1-.35-.65,2.42,2.42,0,0,0-.89,0,1.42,1.42,0,0,1-.35.65,1.55,1.55,0,0,1,.31-.07Z"/><path class="cls-2" d="M18.39,8.78a.73.73,0,0,0,.31-.59A.67.67,0,1,0,18,8.9a.85.85,0,0,0,.22,0l.05-.15Z"/><path class="cls-2" d="M13,7.72v.1l0-.12Z"/><path class="cls-2" d="M18.94,9.3a1.11,1.11,0,0,1,.2.52A1.58,1.58,0,0,1,18.72,11a2,2,0,0,1-1.17.56l-.38,0a1.8,1.8,0,0,1-1-.25,2,2,0,0,1-1.35.22A2,2,0,0,1,13.68,11a1.58,1.58,0,0,1-.42-1.13,1.22,1.22,0,0,1,.2-.53A1.47,1.47,0,0,1,13,8.38a2.75,2.75,0,0,1-.5,1.25,3.84,3.84,0,0,0,7.43-1.4c0-.05,0-.09,0-.14a2.05,2.05,0,0,0-.47.29A1.49,1.49,0,0,1,18.94,9.3Z"/><path class="cls-2" d="M14.15,8.85a.6.6,0,0,0,.24.05.71.71,0,0,0,0-1.42.7.7,0,0,0-.68.71.71.71,0,0,0,.31.58l.08-.06Z"/><path class="cls-2" d="M19.08,7a3.26,3.26,0,0,1-2.25-1.88,8.82,8.82,0,0,1-2,1.73,1.46,1.46,0,0,1,.94,1,3.15,3.15,0,0,1,.92,0,1.4,1.4,0,0,1,2.64-.22,2.69,2.69,0,0,1,.48-.24,2.56,2.56,0,0,0-.1-.34h-.44S19.15,7,19.08,7Z"/><path class="cls-2" d="M19.15,6.2l.18,0a3.86,3.86,0,0,0-1.87-1.58A2.6,2.6,0,0,0,19.15,6.2Z"/><path class="cls-2" d="M12.33,7.43A1.08,1.08,0,0,1,13,6.89a8.2,8.2,0,0,0,3.4-2.48c-.12,0-.23,0-.35,0A3.86,3.86,0,0,0,12.2,8.23c0,.06,0,.11,0,.16a2,2,0,0,0,0-.48A1.17,1.17,0,0,1,12.33,7.43Z"/><path class="cls-2" d="M20.81,28.06a49.21,49.21,0,0,0-1-7.6v1.7Z"/><path class="cls-2" d="M11,26.19c-.06.67-.1,1.34-.13,2l.36-2H11Z"/><path class="cls-2" d="M13.11,15.8v-.07h0s0,0,0,.08Z"/><path class="cls-2" d="M18.36,10.12l-.19.1a1.33,1.33,0,0,1-1.09-.17,1.34,1.34,0,0,0-.45-.18h-.86a1.19,1.19,0,0,0-.41.16,1.39,1.39,0,0,1-1.13.19l-.19-.1a1,1,0,0,0,.2.33,1.21,1.21,0,0,0,.73.32,1.13,1.13,0,0,0,1-.21l.27-.29.27.29a1.13,1.13,0,0,0,1,.21,1.21,1.21,0,0,0,.73-.32A1,1,0,0,0,18.36,10.12Z"/><path class="cls-2" d="M7,23.93H7l-.18,0L5.8,24l0-1-.23-5.93h0v7.3l.27,0H7.14a6,6,0,0,1,3.49.75l0-.09C10.45,24.6,9.78,23.93,7,23.93Z"/><path class="cls-2" d="M11.5,18.75a3.48,3.48,0,0,1,.12-.93C11,16.3,8.83,15.63,7,15.63l-.5,0L6.76,23l.22,0c1.67,0,3.9.21,4.52,1.64Z"/><path class="cls-2" d="M18.51,24.34l.27,0v-5.9L18.54,23l-.06,1-1-.05-.16,0c-2.79,0-3.47.67-3.62,1.06l0,.09a6,6,0,0,1,3.49-.75Z"/><path class="cls-2" d="M12.5,18.75v5.88h.27c.57-1.49,2.86-1.7,4.55-1.7l.22,0,.39-7.3-.61,0C15.13,15.63,12.5,16.56,12.5,18.75Z"/></svg>