<svg id="Слой_2" data-name="Слой 2" xmlns="http://www.w3.org/2000/svg" viewBox="0 0 31.18 31.18"><defs><style>.cls-1{fill:#043673;}.cls-2{fill:#f1bc6b;}</style></defs><title>Mybesthelper icon</title><path class="cls-1" d="M23,19.76a6.74,6.74,0,0,0-13.43-.83A7.1,7.1,0,0,0,11,16.31h.21a6.16,6.16,0,1,1,5.1,9.62,6.06,6.06,0,0,1-3.48-1.09q-.18.24-.33.48A6.73,6.73,0,0,0,23,19.76Z"/><path class="cls-1" d="M7.4,27.84h0c.22.15.44.29.67.42C7.84,28.14,7.62,28,7.4,27.84Z"/><path class="cls-1" d="M8.29,28.41q.39.24.81.45Q8.68,28.65,8.29,28.41Z"/><path class="cls-1" d="M21.68,19.76a5.42,5.42,0,0,0-5.42-5.41,5.7,5.7,0,0,0-1.1.11A1.88,1.88,0,0,0,16.61,16v.77a2.11,2.11,0,0,0-1.47,1.47h-.77A2.1,2.1,0,0,0,12.9,16.8V16a2.12,2.12,0,0,0,1.41-1.31,5.45,5.45,0,0,0-2.48,1.93A7.18,7.18,0,0,0,16.7,21.3v.76a7.17,7.17,0,0,0-3.46,2.2,5.42,5.42,0,0,0,8.44-4.5Z"/><path class="cls-1" d="M9.44,29l-.06,0,0,0Z"/><path class="cls-1" d="M22.54,28.9l.68-.36Z"/><path class="cls-1" d="M23.68,28.26l.69-.44Z"/><path class="cls-1" d="M18.7,30.22l.59-.14Z"/><path class="cls-1" d="M20,29.89c.22-.06.43-.13.64-.21C20.47,29.76,20.26,29.83,20,29.89Z"/><path class="cls-1" d="M11.28,29.77l.6.17Z"/><path class="cls-1" d="M25.12,27.26h0l-.4.3Z"/><path class="cls-1" d="M6,22.06V21.3c.24-.07.47-.15.7-.24V11.35h0V10.6h0V6.5L5.11,5.33A14.49,14.49,0,0,0,2.42,9.24l3.32,1.87L2.1,9.92A14.86,14.86,0,0,0,1,15.15l3.42.36L1,15.88a15,15,0,0,0,.84,4.65l3.25-.88-3,1.56a14.86,14.86,0,0,0,3,4.67l.64-.38-.38.66a15.59,15.59,0,0,0,1.3,1.14v-5C6.43,22.22,6.2,22.13,6,22.06Z"/><path class="cls-1" d="M10.82,29.6c-.27-.09-.54-.2-.8-.31h0A7.71,7.71,0,0,0,10.82,29.6Z"/><path class="cls-1" d="M22,29.17l-.54.23h0C21.63,29.33,21.8,29.25,22,29.17Z"/><path class="cls-1" d="M12.6,30.13l.55.11Z"/><path class="cls-1" d="M27.07,15.51l3.66-.39a15.21,15.21,0,0,0-.92-4.69l-2.74.68,2.48-1.36a15,15,0,0,0-3.09-4.6l-1,.66.65-1A14.93,14.93,0,0,0,22,2.07L20.7,4.25l.71-2.46A15,15,0,0,0,16.13.73l-.39,4.58L15.34.74a14.86,14.86,0,0,0-4.59.9l1,3.67L10.05,1.9a14.71,14.71,0,0,0-4.5,3L6.66,6.35V6.1H25.87V26.61l.38-.35L26,25.79l.48.24a15.15,15.15,0,0,0,2.85-4.13l-2.27-1.4,2.57.74a14.8,14.8,0,0,0,1.1-5.34Z"/><path class="cls-1" d="M14,30.37l.46.06Z"/><path class="cls-1" d="M17.3,30.42c.17,0,.33,0,.5-.06C17.63,30.38,17.47,30.41,17.3,30.42Z"/><path class="cls-2" d="M11.33,8.35a.34.34,0,1,0,.33.34A.34.34,0,0,0,11.33,8.35Z"/><path class="cls-2" d="M25.12,6.85H7.4V10.6H25.12ZM8.64,9.77A1.09,1.09,0,1,1,9.72,8.69,1.08,1.08,0,0,1,8.64,9.77Zm2.69,0a1.09,1.09,0,1,1,1.08-1.08A1.08,1.08,0,0,1,11.33,9.77Zm2.55,0A1.09,1.09,0,1,1,15,8.69,1.08,1.08,0,0,1,13.88,9.77Z"/><path class="cls-2" d="M16.26,12.27a7.49,7.49,0,0,1,0,15A7.41,7.41,0,0,1,12.11,26a7.18,7.18,0,0,0-.4,1.06H11A7.19,7.19,0,0,0,7.4,22.66v5.18c.22.15.44.3.67.43a1.64,1.64,0,0,0,.22.14q.39.24.81.45l.28.14.06,0,1.11-1.73-.53,2c.26.11.53.22.8.31l.46.17.6.17.72.19.55.11.87.13.46.06.91.05.35-2.4.34,2.41c.41,0,.82,0,1.22-.07.17,0,.33,0,.5-.06s.6-.08.9-.14l.59-.14.75-.19c.22-.06.43-.13.64-.21l.22-.07-.23-1.39.77,1.18.54-.23.56-.27.68-.36.46-.28.69-.44.35-.27.4-.3V11.35H7.4v9.36a7.77,7.77,0,0,0,1.37-.95A7.5,7.5,0,0,1,16.26,12.27Z"/><path class="cls-2" d="M8.64,8.35a.34.34,0,1,0,0,.67.34.34,0,0,0,0-.67Z"/><path class="cls-2" d="M13.88,8.35a.34.34,0,1,0,.33.34A.34.34,0,0,0,13.88,8.35Z"/><path class="cls-2" d="M7.24,21.68a8,8,0,0,1,4.09,4.09,8,8,0,0,1,4.09-4.09,8,8,0,0,1-4.09-4.09A8,8,0,0,1,7.24,21.68Z"/><path class="cls-2" d="M14.76,17.22a3.08,3.08,0,0,1,.8-.81,2.9,2.9,0,0,1-.8-.8,2.94,2.94,0,0,1-.81.8A3.12,3.12,0,0,1,14.76,17.22Z"/></svg>