<svg id="Слой_2" data-name="Слой 2" xmlns="http://www.w3.org/2000/svg" viewBox="0 0 31.18 31.18"><defs><style>.cls-1{fill:#043673;}.cls-2{fill:#f1bc6b;}</style></defs><title>Mybesthelper icon</title><path class="cls-1" d="M17.84,20.34a1.13,1.13,0,0,0,.1.13A1.13,1.13,0,0,1,17.84,20.34Z"/><path class="cls-1" d="M16.22,10a2.53,2.53,0,0,1-.36.12A2.53,2.53,0,0,0,16.22,10Z"/><path class="cls-1" d="M17.45,19.64c.06.14.13.29.2.42A3.23,3.23,0,0,1,17.45,19.64Z"/><path class="cls-1" d="M17.28,19.08a2.38,2.38,0,0,0,.11.38A2.72,2.72,0,0,1,17.28,19.08Z"/><path class="cls-1" d="M18.92,21.35Z"/><path class="cls-1" d="M15.22,9.58h0Z"/><path class="cls-1" d="M19.44,28.59h0Z"/><path class="cls-1" d="M20,28.6h0Z"/><path class="cls-1" d="M20.72,28.62h0Z"/><path class="cls-1" d="M18.94,28.58h0Z"/><path class="cls-1" d="M18.58,28.58h0Z"/><path class="cls-1" d="M22,13.87v0Z"/><path class="cls-1" d="M21.45,28.64h0Z"/><path class="cls-1" d="M18.91,30.16l-.25.06Z"/><path class="cls-1" d="M17.39,30.41l-.3,0Z"/><path class="cls-1" d="M20.26,29.8l-.3.09Z"/><path class="cls-1" d="M21.73,29.24l-.34.15Z"/><path class="cls-1" d="M22.88,28.68l-.23.12Z"/><path class="cls-1" d="M3,23.34c-.14-.23-.29-.45-.41-.69C2.73,22.89,2.88,23.11,3,23.34Z"/><path class="cls-1" d="M3.87,24.6c-.2-.27-.4-.54-.58-.81C3.47,24.06,3.67,24.33,3.87,24.6Z"/><path class="cls-1" d="M17.21,18.35a3.43,3.43,0,0,0,0,.56A3.43,3.43,0,0,1,17.21,18.35Z"/><path class="cls-1" d="M4.79,25.69c-.27-.28-.52-.58-.76-.88C4.27,25.12,4.53,25.41,4.79,25.69Z"/><path class="cls-1" d="M14.34,30.44l-.79-.11Z"/><path class="cls-1" d="M5.72,26.62c-.31-.28-.6-.57-.88-.87C5.12,26.05,5.41,26.34,5.72,26.62Z"/><path class="cls-1" d="M13.05,30.26c-.35-.07-.69-.15-1-.24C12.36,30.11,12.7,30.19,13.05,30.26Z"/><path class="cls-1" d="M10.66,26.92l0-.06Z"/><path class="cls-1" d="M7.35,25.44a7,7,0,0,1,.53-.56A7,7,0,0,0,7.35,25.44Z"/><path class="cls-1" d="M8.08,24.7l.55-.43Z"/><path class="cls-1" d="M6.76,26.27q.23-.36.48-.69Q7,25.91,6.76,26.27Z"/><path class="cls-1" d="M8.94,24.07a5.54,5.54,0,0,1,.53-.3C9.29,23.86,9.12,24,8.94,24.07Z"/><path class="cls-1" d="M9.92,23.57c.15-.06.3-.13.46-.18C10.22,23.44,10.07,23.51,9.92,23.57Z"/><path class="cls-1" d="M10.71,29.62h0a11.58,11.58,0,0,0,1.14.36q-.57-.15-1.14-.36Z"/><path class="cls-1" d="M9,23.12H9A9.94,9.94,0,0,0,7,19.17,9.94,9.94,0,0,1,9,23.12Z"/><path class="cls-1" d="M11,23.24a2.45,2.45,0,0,1,.37-.08A2.45,2.45,0,0,0,11,23.24Z"/><path class="cls-1" d="M10.92,28.34a6.24,6.24,0,0,1-1,1l-.55-.26h0l.55.26A6.24,6.24,0,0,0,10.92,28.34Z"/><path class="cls-1" d="M2.61,22.65h0a5.29,5.29,0,0,1,1.71.56A5.29,5.29,0,0,0,2.61,22.65Z"/><polygon class="cls-1" points="5.72 26.62 5.72 26.62 5.72 26.62 5.72 26.62"/><path class="cls-1" d="M6.33,27.16a6,6,0,0,1,.39-.81A6,6,0,0,0,6.33,27.16Z"/><path class="cls-1" d="M11.45,27.61l-.27.42C11.28,27.89,11.36,27.75,11.45,27.61Z"/><path class="cls-1" d="M30.2,12.15a14.47,14.47,0,0,0-1-2.86L21,10l7.79-1.48a15,15,0,0,0-1.24-1.89c-1.05.32-2.1.64-3.16.93-1.51.4-3,.8-4.58,1.06,1.51-.43,3-1,4.42-1.54.93-.36,1.84-.75,2.76-1.14A14.83,14.83,0,0,0,25,4L19.09,7.65l5.34-4.1a15.63,15.63,0,0,0-1.75-1.1l-1,1L20.27,4.85a18.83,18.83,0,0,1-1.48,1.34,18.78,18.78,0,0,0,1.3-1.51l1.22-1.57.75-.95a14.07,14.07,0,0,0-1.76-.71l-2,3.43,1.39-3.59a14.75,14.75,0,0,0-8.42.11l1.35,3.48L10.78,1.59a14.4,14.4,0,0,0-1.71.73l.62.79,1.22,1.57a18.78,18.78,0,0,0,1.3,1.51,18.83,18.83,0,0,1-1.48-1.34L9.31,3.44l-.82-.82A13,13,0,0,0,6.8,3.73l5.11,3.92L6.24,4.15A15.26,15.26,0,0,0,4.35,6c.8.34,1.6.68,2.42,1,1.45.56,2.92,1.11,4.42,1.54-1.54-.26-3.07-.66-4.58-1.06C5.68,7.25,4.76,7,3.84,6.69A13.48,13.48,0,0,0,2.63,8.55L10,10,2.25,9.32a15.28,15.28,0,0,0-.9,2.51l11-.86L1.11,12.83a15,15,0,0,0-.27,2.79c0,.22,0,.44,0,.66l6.63-2.6L.92,17.13a14.69,14.69,0,0,0,1.31,4.73,5.78,5.78,0,0,1,1.7.35,7.78,7.78,0,0,1,3-3.89l.38.14A17.46,17.46,0,0,1,8.72,20.4c0-5.59.2-6.78,1.35-7a26,26,0,0,1,3.54-.23h.29a4.36,4.36,0,0,0,1.64-.47,4.57,4.57,0,0,1-.46-1.81,1.75,1.75,0,0,1-.43-.17c-.47-.25-1.23-.93-1.1-2.68a6.45,6.45,0,0,1,.69-2.15,4.38,4.38,0,0,0,.6-2.28l-.15-1.11.79.81A8.83,8.83,0,0,1,18,7a3.14,3.14,0,0,1-1,3.35,2.59,2.59,0,0,1-1.2.51,3.68,3.68,0,0,0,.4,1.46c1.61-.77,3.62-1.71,6.35-.69l.25.09V12s-.05,1.94-.07,2.78a13.39,13.39,0,0,1,3.92.44H30V16H27.83a2.67,2.67,0,0,1,.51,1.7,2.75,2.75,0,0,1-.56,2.06c-.72.73-2.11.8-5.33.8-.66,0-2,0-2.35-.85a1.62,1.62,0,0,1,0-1.65c.59-.77,2.15-.95,4.92-.58l-.1.74c-3.27-.44-4.05.06-4.23.29s-.07.54.05.83l0,.12c.06.16.4.36,1.64.36h0c2.63,0,4.26,0,4.8-.59.25-.26.35-.68.34-1.53,0-1.85-1-2.16-6.62-2.13a3,3,0,0,0-3,2.8,3.13,3.13,0,0,0,2.68,2.94c.49,0,2.11,0,4.65.09,1.56.05,3.28.1,4.13.1a14.92,14.92,0,0,0,.91-8.79l-6.19-1Z"/><path class="cls-1" d="M12.46,24.05c0,.1,0,.21,0,.32C12.45,24.26,12.46,24.15,12.46,24.05Z"/><path class="cls-1" d="M11.88,26.79c-.06.14-.13.28-.2.42C11.75,27.07,11.82,26.93,11.88,26.79Z"/><path class="cls-1" d="M10.79,25.72a5.87,5.87,0,0,1-.55,1A5.87,5.87,0,0,0,10.79,25.72Z"/><path class="cls-1" d="M10.11,28v0Z"/><path class="cls-1" d="M12.2,25.91c0,.14-.08.28-.13.42C12.12,26.19,12.16,26.05,12.2,25.91Z"/><path class="cls-1" d="M12.4,25c0,.13-.05.26-.07.39C12.35,25.25,12.38,25.12,12.4,25Z"/><path class="cls-1" d="M8.47,28.6a7.34,7.34,0,0,0,1.7-1.77A7.17,7.17,0,0,1,8.47,28.6Z"/><path class="cls-1" d="M6.33,27.16h0a15.66,15.66,0,0,0,2.13,1.45h0A15.66,15.66,0,0,1,6.33,27.16Z"/><polygon class="cls-1" points="6.97 24.7 6.97 24.7 6.97 24.7 6.97 24.7"/><path class="cls-1" d="M13.05,22.66a6.4,6.4,0,0,1,.14,1.07A6.4,6.4,0,0,0,13.05,22.66Z"/><path class="cls-1" d="M12.84,26.37c0,.1-.08.19-.11.29C12.76,26.56,12.8,26.47,12.84,26.37Z"/><path class="cls-1" d="M13.1,25.28c0,.17-.06.34-.1.51C13,25.62,13.07,25.45,13.1,25.28Z"/><polygon class="cls-1" points="9.73 22.81 9.73 22.81 9.73 22.81 9.73 22.81 9.73 22.81"/><path class="cls-1" d="M7.94,23.81h0Z"/><path class="cls-1" d="M11.8,22.36h0Z"/><path class="cls-1" d="M4.82,23.51c-.16-.1-.31-.2-.48-.29A5.55,5.55,0,0,1,4.82,23.51Z"/><path class="cls-1" d="M15.94,9.79a3.38,3.38,0,0,0-.08.34h0A3.38,3.38,0,0,1,15.94,9.79Z"/><polygon class="cls-1" points="11.45 21.84 11.45 21.84 11.95 15.34 11.95 15.34 11.45 21.84"/><path class="cls-1" d="M11.08,22.44l.21,0Z"/><path class="cls-1" d="M10.39,22.59l.17,0Z"/><path class="cls-1" d="M13.19,24.12c0,.22,0,.44,0,.66C13.19,24.56,13.19,24.34,13.19,24.12Z"/><path class="cls-1" d="M22.88,28.68Z"/><path class="cls-1" d="M5.93,23.43l0,0Z"/><path class="cls-1" d="M6.51,19.59l.23-.22Z"/><path class="cls-1" d="M4.89,23.56a5.19,5.19,0,0,1,1.58,1.75h0A5.19,5.19,0,0,0,4.89,23.56Z"/><path class="cls-1" d="M26.9,24.23a2.51,2.51,0,0,1-.62,1.89c-.87.88-2.62,1-6.12,1-.72,0-2.05,0-2.35-.85a1.61,1.61,0,0,1,0-1.66c.6-.76,2.16-.94,4.92-.57l-.1.74c-3.27-.44-4,.06-4.23.29s-.06.53.06.83l0,.12c.06.16.39.35,1.65.35,3,0,4.89-.05,5.59-.76a1.8,1.8,0,0,0,.4-1.35c0-1.85-1.81-2.18-7.48-2.14a3.06,3.06,0,0,0-3,2.81,3.14,3.14,0,0,0,2.68,2.93c.5,0,2.12,0,4.65.1l1.06,0a15.07,15.07,0,0,0,5-5.73c-.74,0-1.86,0-3.32-.09A2.22,2.22,0,0,1,26.9,24.23Zm-10.77,1a2.31,2.31,0,0,1,2.14-2.08,1.8,1.8,0,0,0-1.14,2Z"/><path class="cls-1" d="M6.51,24h0Z"/><path class="cls-1" d="M11,25.73a.64.64,0,0,0,0-.07A.64.64,0,0,1,11,25.73Z"/><path class="cls-1" d="M5.32,22.94h0Z"/><path class="cls-1" d="M4.61,22.51h0a9.06,9.06,0,0,1,1.86-2.88A9.06,9.06,0,0,0,4.61,22.51Z"/><path class="cls-2" d="M7,19.17l-.22.2-.23.22,0,0a9.06,9.06,0,0,0-1.86,2.88h0a7.92,7.92,0,0,1,.69.42h0a7.26,7.26,0,0,1,.61.49l0,0A6,6,0,0,1,6.5,24h0A4.88,4.88,0,0,1,7,24.7H7a8,8,0,0,1,1-.88h0A7.81,7.81,0,0,1,9,23.12H9A9.94,9.94,0,0,0,7,19.17Z"/><path class="cls-2" d="M6.47,25.31h0a5.19,5.19,0,0,0-1.58-1.75l-.07,0a5.55,5.55,0,0,0-.48-.29h0a5.29,5.29,0,0,0-1.71-.56h0c.12.24.27.46.41.69s.17.3.27.45.38.54.58.81l.16.21c.24.3.49.6.76.88l0,.06c.28.3.57.59.88.87h0A6.54,6.54,0,0,1,6.47,25.31Z"/><path class="cls-2" d="M8.46,28.61h0a7.17,7.17,0,0,0,1.7-1.77.83.83,0,0,0,.07-.13,5.87,5.87,0,0,0,.55-1,6.55,6.55,0,0,0,.43-1.22,7.53,7.53,0,0,1-.16,1.16.64.64,0,0,1,0,.07,8.7,8.7,0,0,1-.35,1.13l0,.06A7.89,7.89,0,0,1,10.12,28v0a9.35,9.35,0,0,1-.74,1h0l.55.26a6.24,6.24,0,0,0,1-1,3.88,3.88,0,0,0,.26-.31l.27-.42c.08-.13.16-.26.23-.4s.14-.28.2-.42.13-.31.19-.46.09-.28.13-.42.09-.35.13-.53.05-.26.07-.39a4.3,4.3,0,0,0,0-.62c0-.11,0-.22,0-.32a6.23,6.23,0,0,0-.09-1,5.72,5.72,0,0,0-1,.07,2.45,2.45,0,0,0-.37.08,4.52,4.52,0,0,0-.61.15c-.16.05-.31.12-.46.18a3.07,3.07,0,0,0-.45.2,5.54,5.54,0,0,0-.53.3l-.31.2-.55.43-.2.18a7,7,0,0,0-.53.56l-.11.14q-.25.33-.48.69l0,.08a6,6,0,0,0-.39.81h0a15.66,15.66,0,0,0,2.13,1.45Z"/><path class="cls-2" d="M21.58,28.64h-.13l-.54,0H18.22c-2-.5-3.34-1.95-3.3-3.7a3.77,3.77,0,0,1,3.75-3.54h.25a4,4,0,0,1-1-.88,1.13,1.13,0,0,1-.1-.13,2.75,2.75,0,0,1-.19-.28c-.07-.13-.14-.28-.2-.42a1.27,1.27,0,0,1-.06-.18,2.38,2.38,0,0,1-.11-.38l0-.17a3.43,3.43,0,0,1,0-.56A3.76,3.76,0,0,1,21,14.81h1c0-.25,0-.58,0-.94V13.8c0-.57,0-1.18,0-1.52-2.32-.77-4,.05-5.54.77a7,7,0,0,1-2.6.85h-.29a29.77,29.77,0,0,0-3.41.22c-.65.13-.75,2-.75,7.72h0c.11.31.2.64.29,1h0c.22-.08.44-.16.66-.22l.17,0,.52-.11.21,0,.51-.05H12a5.67,5.67,0,0,1,.71,0l.27,0,.06.27a6.4,6.4,0,0,1,.14,1.07c0,.13,0,.26,0,.39s0,.44,0,.66,0,.33-.07.5-.06.34-.1.51-.1.39-.16.58-.08.19-.11.29a7.46,7.46,0,0,1-2,3h0q.57.21,1.14.36L12,30c.34.09.68.17,1,.24l.5.07.79.11c.46,0,.92.07,1.39.07h0c.46,0,.91,0,1.36-.07l.3,0c.43-.05.85-.11,1.27-.19l.25-.06c.35-.08.71-.17,1.05-.27l.3-.09c.38-.12.76-.26,1.13-.41l.34-.15c.31-.14.62-.28.92-.44l.23-.12h-.11Zm-10.13-6.8h0l-.5-6.5h1Z"/><path class="cls-2" d="M15.86,10.13h0a2.53,2.53,0,0,0,.36-.12,1.73,1.73,0,0,0,.34-.21,2.41,2.41,0,0,0,.72-2.58,6.83,6.83,0,0,0-1.73-2.77,7.34,7.34,0,0,1-.63,1.73,6,6,0,0,0-.62,1.9h0c-.07,1,.18,1.68.7,2l.11,0h0a3.86,3.86,0,0,1,.1-.49h0a2.11,2.11,0,0,1,.17-.44l.67.34a1.66,1.66,0,0,0-.12.31,3.38,3.38,0,0,0-.08.34Z"/></svg>