<svg id="Слой_2" data-name="Слой 2" xmlns="http://www.w3.org/2000/svg" viewBox="0 0 31.18 31.18"><defs><style>.cls-1{fill:#043673;}.cls-2{fill:#f1bc6b;}</style></defs><title>Mybesthelper icon</title><path class="cls-1" d="M1.78,21.45c.8-4.2,2.58-7.76,4.93-9.62a4.61,4.61,0,1,1,7.26,0A10.08,10.08,0,0,1,17,16.19a8.88,8.88,0,0,1,.73-.66A4.54,4.54,0,0,1,19.3,8.65a1.46,1.46,0,0,1-.07-1.09,2.07,2.07,0,0,1,1-1.1,2.79,2.79,0,0,1,2.91,0A2.31,2.31,0,0,1,24.05,9a4.55,4.55,0,0,1,1,6.52c1.7,1.23,3,3.7,3.81,6.58A14.88,14.88,0,1,0,.56,15.62,15.21,15.21,0,0,0,.76,18h0A15.11,15.11,0,0,0,1.78,21.45Z"/><path class="cls-2" d="M22.7,7.12a2.06,2.06,0,0,0-2.12,0,1.34,1.34,0,0,0-.65.69.74.74,0,0,0,.05.57,4.4,4.4,0,0,1,1.41-.25,4.67,4.67,0,0,1,2,.46A1.6,1.6,0,0,0,22.7,7.12Z"/><path class="cls-2" d="M8.17,16.55l4.13,0a18.41,18.41,0,0,1,2.14-3.33,5,5,0,0,0-1-.89,4.56,4.56,0,0,1-6.26,0,9.45,9.45,0,0,0-.89.81A6.06,6.06,0,0,1,8.17,16.55Z"/><path class="cls-2" d="M13.68,18.84q.27.87.51,1.77a15,15,0,0,1,2.27-3.81A17.12,17.12,0,0,0,15.62,15,6.07,6.07,0,0,0,13.68,18.84Z"/><path class="cls-2" d="M4.75,25.33A31.74,31.74,0,0,1,6.55,19a5.33,5.33,0,0,0-1.69-3.82,20.24,20.24,0,0,0-2.52,7.49,14.55,14.55,0,0,0,2.33,3.26C4.69,25.71,4.72,25.52,4.75,25.33Z"/><path class="cls-2" d="M12.37,30.1a24.93,24.93,0,0,1,1.64-9l-.33-2.21a6.4,6.4,0,0,1,1.58-4.48l-.35-.51a20.88,20.88,0,0,0-2,3.28l-.11.21-5.19,0L7.5,17a5.5,5.5,0,0,0-1.67-3.25,9.11,9.11,0,0,0-.58.77A5.69,5.69,0,0,1,6.55,19L5.41,26.63a14.78,14.78,0,0,0,7,3.61S12.37,30.15,12.37,30.1ZM7.86,19.44a20.74,20.74,0,0,0,4.79,0l.08.75a21.67,21.67,0,0,1-2.42.13,21.51,21.51,0,0,1-2.54-.15Z"/><path class="cls-2" d="M11.2,6a9,9,0,0,1-4.68,3.4,3.83,3.83,0,0,0,7.65-.18A4.87,4.87,0,0,1,11.2,6ZM7.36,9.34l2.33-.5v1Z"/><path class="cls-2" d="M10.8,5.21c-.15,0-.31,0-.47,0A3.85,3.85,0,0,0,6.52,8.59,8.19,8.19,0,0,0,10.8,5.21Z"/><path class="cls-2" d="M14.12,8.37a3.85,3.85,0,0,0-2.26-2.88A4.09,4.09,0,0,0,14.12,8.37Z"/><path class="cls-2" d="M14,21.05l.18-.44q-.24-.9-.51-1.77Z"/><path class="cls-2" d="M6.55,19a31.71,31.71,0,0,0-1.3,6.44c0,.33-.06.67-.08,1l.24.23Z"/><path class="cls-2" d="M21.88,17.39a6.38,6.38,0,0,0,1.17,2l.08-.11a8.76,8.76,0,0,0,1.67-3l-.27-.19a4.66,4.66,0,0,1-2.66,1.2A.21.21,0,0,1,21.88,17.39Z"/><path class="cls-2" d="M26.68,18.69a6.08,6.08,0,0,0-1.95,3.86c.44,1.23.83,2.49,1.16,3.77a15,15,0,0,0,2.47-3.18A19.5,19.5,0,0,0,26.68,18.69Z"/><path class="cls-2" d="M24.73,22.55a6.4,6.4,0,0,1,1.58-4.48,8.49,8.49,0,0,0-.91-1.21,10.56,10.56,0,0,1-1.67,2.86l-.08.1a.77.77,0,0,1-.51.35h-.07a.82.82,0,0,1-.53-.24,6.8,6.8,0,0,1-1.24-2l-1.19,1.47a1.22,1.22,0,0,1-.87.53.62.62,0,0,1-.19,0,1.09,1.09,0,0,1-.64-.58q-.63-1.14-1.17-2.31a10.49,10.49,0,0,0-.94,1.19,5.68,5.68,0,0,1,1.31,4.44l-1.17,7.87a14.82,14.82,0,0,0,2.77-.44L20.57,22l-.76,7.93a14.32,14.32,0,0,0,2.87-1.22c-.27-2.17-.54-4.34-1-6.49.56,2.06,1,4.16,1.4,6.26a14.65,14.65,0,0,0,2.24-1.67Z"/><path class="cls-2" d="M19.23,19.2s.08,0,.3-.26l1.35-1.66a4.57,4.57,0,0,1-2.61-1.19,5.58,5.58,0,0,0-.46.39c.38.84.8,1.68,1.25,2.5C19.17,19.17,19.22,19.2,19.23,19.2Z"/><path class="cls-2" d="M15.8,29a31.12,31.12,0,0,1,1.81-6.37,5.38,5.38,0,0,0-1.7-3.83A22.38,22.38,0,0,0,13.12,30.1c0,.09,0,.19,0,.28a14.09,14.09,0,0,0,2.36.2h.08C15.64,30.06,15.71,29.55,15.8,29Z"/><path class="cls-2" d="M18.89,9.81a3.89,3.89,0,0,0-1.13,1.68A2.7,2.7,0,0,0,18.89,9.81Z"/><path class="cls-2" d="M20.77,11a4.4,4.4,0,0,0,.61.21,5.48,5.48,0,0,0,3.47-.14,3.85,3.85,0,0,0-3.46-2.2,3.79,3.79,0,0,0-1.71.42.34.34,0,0,1,0,.1A2.27,2.27,0,0,0,20.77,11Z"/><path class="cls-2" d="M21.16,11.92a4.14,4.14,0,0,1-.75-.26,3,3,0,0,1-1-1,3,3,0,0,1-1.82,1.7c0,.12,0,.23,0,.35a3.86,3.86,0,0,0,7.71,0,4,4,0,0,0-.14-1A5.53,5.53,0,0,1,21.16,11.92Zm-2.75,1.13,2.33-.5v1Z"/><path class="cls-2" d="M24.73,22.55l.63,4.26a3.2,3.2,0,0,0,.27-.25C25.39,25.21,25.09,23.87,24.73,22.55Z"/><path class="cls-2" d="M17.61,22.67A31,31,0,0,0,16.3,29.1c-.05.48-.08,1-.11,1.45h.25Z"/></svg>