<svg width="14" height="15" viewBox="0 0 14 15" fill="none" xmlns="http://www.w3.org/2000/svg">
<path opacity="0.5" d="M9.65625 7.5L13.5625 11.4062C13.7969 11.6406 13.9141 11.9271 13.9141 12.2656C13.9141 12.6042 13.7969 12.9036 13.5625 13.1641L12.7031 14.0234C12.4427 14.2578 12.1432 14.375 11.8047 14.375C11.4661 14.375 11.1797 14.2578 10.9453 14.0234L7.03906 10.1172L3.13281 14.0234C2.89844 14.2578 2.61198 14.375 2.27344 14.375C1.9349 14.375 1.63542 14.2578 1.375 14.0234L0.515625 13.1641C0.28125 12.9036 0.164062 12.6042 0.164062 12.2656C0.164062 11.9271 0.28125 11.6406 0.515625 11.4062L4.42188 7.5L0.515625 3.59375C0.28125 3.35938 0.164062 3.07292 0.164062 2.73438C0.164062 2.39583 0.28125 2.09635 0.515625 1.83594L1.375 0.976562C1.63542 0.742188 1.9349 0.625 2.27344 0.625C2.61198 0.625 2.89844 0.742188 3.13281 0.976562L7.03906 4.88281L10.9453 0.976562C11.1797 0.742188 11.4661 0.625 11.8047 0.625C12.1432 0.625 12.4427 0.742188 12.7031 0.976562L13.5625 1.83594C13.7969 2.09635 13.9141 2.39583 13.9141 2.73438C13.9141 3.07292 13.7969 3.35938 13.5625 3.59375L9.65625 7.5Z" fill="#2F2F2F"/>
</svg>
