<svg id="Слой_2" data-name="Слой 2" xmlns="http://www.w3.org/2000/svg" viewBox="0 0 31.18 31.18"><defs><style>.cls-1{fill:#043673;}.cls-2{fill:#f1bc6b;}</style></defs><title>Mybesthelper icon</title><path class="cls-1" d="M23.79,16.25l7-.11c0-.18,0-.35,0-.52a15.33,15.33,0,0,0-.15-2l-7,1.21-1.72,3v4.6l3.25,4.86a14.24,14.24,0,0,0,1.79-1.68l-.33-.34L25,23.62,23.5,22a21.53,21.53,0,0,0-1.6-1.57,21.64,21.64,0,0,1,1.77,1.39l1.7,1.46,1.7,1.46.35.29a14.27,14.27,0,0,0,1.36-2l-6.67-4.28,7,3.66a15.32,15.32,0,0,0,1.07-2.73c-.75-.24-1.5-.49-2.25-.72-1.69-.49-3.38-1-5.11-1.3,1.75.17,3.49.49,5.22.82.78.15,1.55.33,2.32.49a14.15,14.15,0,0,0,.34-2.18Z"/><path class="cls-1" d="M21.85,25.21a1.71,1.71,0,0,1-1.7,1.71H7.53V5.46h10l.78-1.33a1.62,1.62,0,0,1,2.22-.59l5.67,3.31a1.63,1.63,0,0,1,.75,1,1.61,1.61,0,0,1-.17,1.23l-3.13,5.58,6.86-1.77a14.9,14.9,0,1,0-6.09,14.93l-2.56-5.2Z"/><path class="cls-2" d="M25,10.4l.34-.67.15.08.62-1.11a.89.89,0,0,0,.1-.67.85.85,0,0,0-.41-.53L20.14,4.19A.87.87,0,0,0,19,4.5l-.56,1h1.76a1.7,1.7,0,0,1,1.7,1.71V7.9l.24.13-.24.46v7.82l.77-1.37-.38.07.4-.11,2.49-4.44Zm-1.09-.57-1.09-.57.35-.67,1.09.57Z"/><path class="cls-2" d="M13.37,16.55a6.23,6.23,0,0,0,2.71-.07,6.34,6.34,0,0,0-.08-2.7,6.34,6.34,0,0,0-2.7.07A6.5,6.5,0,0,0,13.37,16.55Z"/><path class="cls-2" d="M13.45,11.54a3.87,3.87,0,0,0-2.38,2.33,9.78,9.78,0,0,1,1.61-.63A6,6,0,0,1,13.45,11.54Z"/><path class="cls-2" d="M15.78,13A9.25,9.25,0,0,0,15,11.35l-.33,0h-.17a5.62,5.62,0,0,0-1,1.72A7.06,7.06,0,0,1,15.78,13Z"/><path class="cls-2" d="M12.51,14.08a8.67,8.67,0,0,0-1.65.76c0,.11,0,.22,0,.34s0,.09,0,.14a5.73,5.73,0,0,0,1.73,1A7.38,7.38,0,0,1,12.51,14.08Z"/><path class="cls-2" d="M11,16.39a3.88,3.88,0,0,0,2.36,2.42,9.45,9.45,0,0,1-.63-1.64A6.2,6.2,0,0,1,11,16.39Z"/><path class="cls-2" d="M16,11.56a9.31,9.31,0,0,1,.62,1.6,6.41,6.41,0,0,1,1.72.77A3.87,3.87,0,0,0,16,11.56Z"/><path class="cls-2" d="M16.87,16.25a8.67,8.67,0,0,0,1.65-.76,3,3,0,0,0,0-.31,1,1,0,0,0,0-.17,5.53,5.53,0,0,0-1.72-1A7.31,7.31,0,0,1,16.87,16.25Z"/><path class="cls-2" d="M20.15,6.21H8.27v20H20.15a1,1,0,0,0,1-1v-18A1,1,0,0,0,20.15,6.21ZM18.31,22.75H11.07V22h7.24Zm-3.62-3a4.61,4.61,0,1,1,4.61-4.61A4.62,4.62,0,0,1,14.69,19.79Z"/><path class="cls-2" d="M15.91,18.83a3.84,3.84,0,0,0,2.41-2.39,8.81,8.81,0,0,1-1.62.64A6.35,6.35,0,0,1,15.91,18.83Z"/><path class="cls-2" d="M13.6,17.34A8.61,8.61,0,0,0,14.37,19c.11,0,.21,0,.32,0h.14a5.73,5.73,0,0,0,1-1.75,7.4,7.4,0,0,1-1.33.13A7.12,7.12,0,0,1,13.6,17.34Z"/></svg>