<svg id="Слой_2" data-name="Слой 2" xmlns="http://www.w3.org/2000/svg" viewBox="0 0 31.18 31.18"><defs><style>.cls-1{fill:#043673;}.cls-2{fill:#f1bc6b;}</style></defs><title>Mybesthelper icon</title><path class="cls-1" d="M18.78,23.87c-.19,2.55-.39,5.26-.47,6.4a14.75,14.75,0,0,0,5.37-2.08l-3.89-4.77A8.37,8.37,0,0,1,18.78,23.87Z"/><path class="cls-1" d="M10.86,19.59a8.2,8.2,0,0,1,1.4-1.36,4.6,4.6,0,1,1,8.23-2.81,4.52,4.52,0,0,1-1,2.79,6.62,6.62,0,0,1,1.21,1.17,6.27,6.27,0,1,0-9.87.21Z"/><path class="cls-1" d="M30.56,14.62A14.83,14.83,0,0,0,29.5,10l-3.25.78,2.88-1.58A14.87,14.87,0,0,0,26,4.85L23.75,6.53l1.66-2.2a15,15,0,0,0-4-2.46L20.1,4l.7-2.4A14.8,14.8,0,0,0,15.72.73h0l-.4,4.32L14.94.77a14.85,14.85,0,0,0-4.39.9L11.45,5,9.89,1.91A15,15,0,0,0,5.56,4.75L6.74,6.36,5.14,5.14A14.81,14.81,0,0,0,2.46,8.87l3.12,1.8L2.14,9.52A14.83,14.83,0,0,0,.88,14.58L4.26,15l-3.42.36c0,.09,0,.19,0,.29a15,15,0,0,0,.63,4.3L4.89,19,1.72,20.67A14.91,14.91,0,0,0,14,30.41l-.36-6.24a8.8,8.8,0,1,1,8.75-2.84l3.86,4.72,0,0a23.71,23.71,0,0,0,2.92-4.23L26.2,20l3.41,1a14.88,14.88,0,0,0,1-5.32v0l-4.37-.51Z"/><path class="cls-1" d="M16.05,30.49h.21a1.45,1.45,0,0,1-.1-.18C16.12,30.38,16.08,30.43,16.05,30.49Z"/><polygon class="cls-2" points="15.48 30.08 15.47 30.09 15.47 30.08 15.48 30.08"/><path class="cls-2" d="M16.76,30.08h0l.1,0A.13.13,0,0,0,16.76,30.08Z"/><path class="cls-2" d="M14.42,24.32l.34,5.91.68-.14A13.2,13.2,0,0,0,15.75,26l0-.38.8,0,0,.41a13.07,13.07,0,0,0,.32,4.15l.68.14c.11-1.54.29-3.91.45-6.13a8.67,8.67,0,0,1-2.29.32A9.37,9.37,0,0,1,14.42,24.32Z"/><path class="cls-2" d="M19,18.77a4.54,4.54,0,0,1-6.27,0,8.08,8.08,0,0,0-1.38,1.36A6.26,6.26,0,0,0,20.24,20,5.87,5.87,0,0,0,19,18.77Z"/><path class="cls-2" d="M19.74,15.4a3.86,3.86,0,0,0-3.14-3.76,5.11,5.11,0,0,0,1,2.46A3.79,3.79,0,0,0,19.74,15.4Z"/><path class="cls-2" d="M12.89,14.84a6.06,6.06,0,0,0,2.88-3.26A3.84,3.84,0,0,0,12.07,15,1.31,1.31,0,0,0,12.89,14.84Z"/><path class="cls-2" d="M17.05,14.57a5.59,5.59,0,0,1-1-1.86,6.81,6.81,0,0,1-2.85,2.8,2.28,2.28,0,0,1-1,.3l-.12,0a3.84,3.84,0,0,0,7.6.36A4.52,4.52,0,0,1,17.05,14.57Zm-1.81.67v1l-2.33-.5Z"/><path class="cls-2" d="M24.12,27.54l1.44-1.17L21.9,21.88A9,9,0,0,1,20.45,23Z"/><path class="cls-2" d="M15.72,23.68a8.06,8.06,0,1,0-8.06-8.06A8.07,8.07,0,0,0,15.72,23.68Zm-7-8.06a7,7,0,1,1,7,7A7,7,0,0,1,8.69,15.62Z"/></svg>