<svg width="92" height="18" viewBox="0 0 92 18" fill="none" xmlns="http://www.w3.org/2000/svg">
<g clip-path="url(#clip0)">
<path fill-rule="evenodd" clip-rule="evenodd" d="M55.7023 14.8219H49.3592L49.2141 17.2886H48.4053V13.9717H48.84C49.5661 13.3709 49.9186 11.7124 50.1255 9.59764C50.333 7.40075 50.3953 4.12518 50.4571 0H55.6399V13.9717H56.6563V17.2886H55.8474L55.7023 14.8219ZM54.6032 0.849611H51.3906C51.3283 4.60185 51.2239 7.4625 51.0591 9.59764C50.8726 11.8155 50.5404 13.2875 49.9804 13.9717H54.6038V0.849611H54.6032ZM60.9518 14.1797C62.3411 14.1797 63.0666 13.0597 63.0666 13.0597L63.3772 13.8475C63.3772 13.8475 62.5899 15.0293 60.9321 15.0293C58.713 15.0293 57.6973 13.0183 57.6973 9.59764C57.6973 6.17697 58.9828 4.16655 60.745 4.16655C62.5486 4.16655 63.7088 6.05286 63.3772 9.76373H58.6518C58.6932 12.6238 59.4391 14.1797 60.9525 14.1797H60.9518ZM58.6716 8.99686H62.4652C62.6319 6.21895 61.8015 4.97541 60.745 4.97541C59.6459 4.97541 58.755 6.38443 58.6716 8.99686ZM69.7659 9.78411H66.2002V14.8219H65.2258V4.3734H66.2002V8.99686H69.7659V4.3734H70.7403V14.8219H69.7659V9.78349V9.78411ZM73.0446 4.3734H74.0189V8.25098H74.7858C76.7765 8.25098 78.0614 9.32843 78.0614 11.5049C78.0614 13.7228 76.6937 14.8219 74.7234 14.8219H73.0452V4.3734H73.0446ZM74.0189 9.01662V14.055H74.6407C76.1127 14.055 77.108 13.3295 77.108 11.5259C77.108 9.76373 76.2374 9.01662 74.7451 9.01662H74.0189ZM80.6973 5.18164V14.8219H79.7433V4.3734H84.1593V5.18226H80.6973V5.18164ZM90.5271 7.54585C90.5271 7.00682 90.5691 6.55114 90.6104 6.11522H90.5481C90.3974 6.57831 90.2103 7.02905 89.9887 7.4625L86.589 14.8219H85.7591V4.3734H86.6717V11.6284C86.6717 12.1891 86.6303 12.6454 86.589 13.101H86.6507C86.7958 12.6238 87.0033 12.1687 87.2101 11.7124L90.6104 4.3734H91.46V14.8219H90.5271V7.54524V7.54585Z" fill="black"/>
</g>
<g clip-path="url(#clip1)">
<path d="M4.37401 9.14196L1.84494 14.8219H0L2.77852 8.74741C1.472 8.08427 0.602013 6.88271 0.602013 4.6636C0.602013 1.55474 2.57044 0 4.91366 0H7.29702V14.8219H5.70091V9.14134H4.37401V9.14196ZM5.70153 1.34604H4.85068C3.56515 1.34604 2.32099 2.19627 2.32099 4.66298C2.32099 7.04757 3.46142 7.81444 4.85068 7.81444H5.7003V1.34666L5.70153 1.34604Z" fill="#FF0000"/>
<path d="M14.9932 4.37315V14.8216H13.3964V10.1364H10.9921V14.8216H9.375V4.37315H10.9921V8.81015H13.3964V4.37315H14.9932ZM23.3053 16.874H21.8543V14.8216H17.3765V16.874H15.9255V13.4947H16.5677C17.5216 11.2769 17.6254 8.04266 17.6254 5.26537V4.37315H22.4767V13.4947H23.3053V16.874ZM20.8799 5.67968H19.0764V5.86553C19.0764 8.06365 18.9733 11.2762 18.1027 13.4941H20.8799V5.67968ZM27.7626 14.9661C25.6071 14.9661 24.2802 13.2459 24.2802 10.0327C24.2802 6.67439 25.2126 4.22867 27.4305 4.22867C29.1717 4.22867 30.3121 5.53457 30.3121 9.07935V9.97033H25.9591C25.9591 12.3333 26.6222 13.5775 27.9078 13.5775C28.8197 13.5775 29.5446 13.1632 29.9602 12.873L30.3331 14.1165C29.67 14.6352 28.7987 14.9667 27.7626 14.9667V14.9661ZM25.9801 8.64405H28.6536C28.6536 6.86209 28.3634 5.55619 27.4311 5.55619C26.4357 5.55619 26.0832 6.77874 25.9801 8.64405ZM33.5871 9.619V14.8223H31.9706V4.37315H33.5877V9.20408L36.0957 4.37315H37.7338L35.1418 9.28682L38.1068 14.8216H36.3446L33.5877 9.61839L33.5871 9.619ZM38.3136 9.59801C38.3136 6.32244 39.5788 4.22929 42.0245 4.22929C42.9568 4.22929 43.4965 4.4775 43.9522 4.7677L43.7243 6.30206C43.289 5.92912 42.6666 5.57656 42.0035 5.57656C40.8427 5.57656 40.0135 6.88309 40.0135 9.51527C40.0135 12.1271 40.6352 13.6195 41.9418 13.6195C42.729 13.6195 43.3304 13.3089 43.704 12.9773L44.0769 14.1801C43.5175 14.6568 42.8544 14.9674 41.9004 14.9674C39.6615 14.9674 38.3136 13.1638 38.3136 9.59801Z" fill="black"/>
</g>
<defs>
<clipPath id="clip0">
<rect width="43.8389" height="17.2886" fill="white" transform="translate(48.1611)"/>
</clipPath>
<clipPath id="clip1">
<rect width="44.4564" height="17.2886" fill="white"/>
</clipPath>
</defs>
</svg>
