<svg width="47" height="36" viewBox="0 0 47 36" fill="none" xmlns="http://www.w3.org/2000/svg">
<g clip-path="url(#clip0)">
<path d="M46.0738 35.5118V35.6043H46.1615C46.1779 35.6046 46.1941 35.6005 46.2085 35.5925C46.2142 35.5886 46.2188 35.5832 46.2219 35.577C46.2249 35.5709 46.2264 35.564 46.2261 35.5571C46.2264 35.5504 46.2249 35.5437 46.2218 35.5376C46.2187 35.5316 46.2141 35.5264 46.2085 35.5227C46.1943 35.5143 46.178 35.5102 46.1615 35.5109H46.0738V35.5118ZM46.1624 35.4463C46.2 35.444 46.2372 35.4547 46.2677 35.4764C46.2799 35.4862 46.2896 35.4988 46.296 35.513C46.3024 35.5272 46.3054 35.5427 46.3046 35.5583C46.3051 35.5717 46.3028 35.585 46.2977 35.5974C46.2926 35.6098 46.2848 35.621 46.275 35.6302C46.2514 35.6504 46.2219 35.6625 46.1908 35.6647L46.3083 35.7966H46.2179L46.1098 35.6656H46.0747V35.7966H45.9991V35.4465H46.1636L46.1624 35.4463ZM46.1389 35.9174C46.1786 35.9177 46.2179 35.9098 46.2543 35.8942C46.2894 35.8794 46.3213 35.8581 46.3483 35.8315C46.3754 35.805 46.397 35.7736 46.412 35.739C46.4428 35.6657 46.4428 35.5833 46.412 35.5099C46.3968 35.4755 46.3752 35.4441 46.3483 35.4174C46.3212 35.3908 46.2894 35.3696 46.2543 35.3547C46.2177 35.3399 46.1785 35.3325 46.1389 35.3329C46.0987 35.3326 46.0588 35.34 46.0214 35.3547C45.9855 35.3693 45.9529 35.3906 45.9253 35.4174C45.8837 35.4594 45.8556 35.5125 45.8444 35.5701C45.8333 35.6276 45.8396 35.6872 45.8625 35.7413C45.8769 35.776 45.8982 35.8075 45.9253 35.8338C45.9529 35.8606 45.9856 35.8819 46.0214 35.8965C46.0585 35.9122 46.0985 35.92 46.1389 35.9197V35.9174ZM46.1389 35.2487C46.2422 35.2486 46.3414 35.2885 46.415 35.3598C46.4505 35.394 46.4788 35.4348 46.4982 35.4799C46.5183 35.5261 46.5287 35.5759 46.5287 35.6262C46.5287 35.6765 46.5183 35.7263 46.4982 35.7725C46.4784 35.8173 46.4501 35.8581 46.415 35.8926C46.379 35.9266 46.337 35.9541 46.2912 35.9736C46.243 35.9937 46.1912 36.004 46.1389 36.0037C46.086 36.004 46.0335 35.9938 45.9847 35.9736C45.9384 35.9545 45.896 35.9271 45.86 35.8926C45.8248 35.8568 45.797 35.8147 45.7779 35.7686C45.7579 35.7223 45.7475 35.6726 45.7475 35.6223C45.7475 35.572 45.7579 35.5222 45.7779 35.4759C45.7973 35.4309 45.8256 35.3901 45.8611 35.3558C45.8967 35.3208 45.9392 35.2933 45.9859 35.2749C46.0347 35.2547 46.0872 35.2444 46.1401 35.2448L46.1389 35.2487ZM10.1557 33.8969C10.1557 33.2294 10.5998 32.6811 11.3258 32.6811C12.0195 32.6811 12.4876 33.2058 12.4876 33.8969C12.4876 34.5879 12.0195 35.1127 11.3258 35.1127C10.5998 35.1127 10.1557 34.5644 10.1557 33.8969ZM13.2784 33.8969V31.9974H12.4397V32.4601C12.1736 32.1181 11.7701 31.9037 11.2214 31.9037C10.1404 31.9037 9.29207 32.7384 9.29207 33.8978C9.29207 35.0572 10.1399 35.8919 11.2214 35.8919C11.7699 35.8919 12.1736 35.6772 12.4397 35.3355V35.7966H13.2774V33.8969H13.2784ZM41.6175 33.8969C41.6175 33.2294 42.0616 32.6811 42.7878 32.6811C43.4822 32.6811 43.9496 33.2058 43.9496 33.8969C43.9496 34.5879 43.4822 35.1127 42.7878 35.1127C42.0619 35.1127 41.6175 34.5644 41.6175 33.8969ZM44.7411 33.8969V30.4727H43.9017V32.4601C43.6357 32.1181 43.2322 31.9037 42.6835 31.9037C41.6025 31.9037 40.7541 32.7384 40.7541 33.8978C40.7541 35.0572 41.602 35.8919 42.6835 35.8919C43.2322 35.8919 43.6357 35.6772 43.9017 35.3355V35.7966H44.7411V33.8969ZM23.6879 32.642C24.2284 32.642 24.5755 32.9756 24.6641 33.563H22.6629C22.7524 33.0147 23.0906 32.642 23.6882 32.642H23.6879ZM23.7049 31.9016C22.5745 31.9016 21.7837 32.7114 21.7837 33.8957C21.7837 35.1032 22.6062 35.8898 23.761 35.8898C24.3419 35.8898 24.874 35.7471 25.3421 35.3577L24.9311 34.7457C24.6077 35.0002 24.196 35.143 23.809 35.143C23.2685 35.143 22.7764 34.8966 22.6553 34.2129H25.5193C25.5275 34.1102 25.536 34.0065 25.536 33.8955C25.5275 32.7116 24.784 31.9014 23.7044 31.9014L23.7049 31.9016ZM33.8305 33.8955C33.8305 33.228 34.2747 32.6797 35.0006 32.6797C35.6943 32.6797 36.1624 33.2044 36.1624 33.8955C36.1624 34.5866 35.6943 35.1113 35.0006 35.1113C34.2747 35.1113 33.8303 34.563 33.8303 33.8955H33.8305ZM36.953 33.8955V31.9974H36.1147V32.4601C35.8478 32.1181 35.4452 31.9037 34.8965 31.9037C33.8155 31.9037 32.9671 32.7384 32.9671 33.8978C32.9671 35.0572 33.815 35.8919 34.8965 35.8919C35.4452 35.8919 35.8478 35.6772 36.1147 35.3355V35.7966H36.9532V33.8969L36.953 33.8955ZM29.0941 33.8955C29.0941 35.0474 29.9086 35.8896 31.1518 35.8896C31.7327 35.8896 32.1197 35.7624 32.5383 35.4368L32.1355 34.7693C31.8206 34.9921 31.4899 35.1113 31.125 35.1113C30.4555 35.1032 29.9631 34.6266 29.9631 33.8955C29.9631 33.1644 30.4555 32.688 31.125 32.6797C31.489 32.6797 31.8196 32.7988 32.1355 33.0216L32.5383 32.3541C32.119 32.0286 31.732 31.9014 31.1518 31.9014C29.9086 31.9014 29.0941 32.7433 29.0941 33.8955ZM39.9065 31.9014C39.4226 31.9014 39.1075 32.1242 38.8896 32.4578V31.9974H38.0584V35.7945H38.8981V33.666C38.8981 33.0376 39.1723 32.6885 39.7206 32.6885C39.9001 32.6859 40.0784 32.7184 40.2451 32.784L40.5036 32.0057C40.3179 31.9337 40.0759 31.9021 39.906 31.9021L39.9065 31.9014ZM17.425 32.2993C17.0215 32.0374 16.4654 31.9021 15.8521 31.9021C14.875 31.9021 14.2459 32.3632 14.2459 33.1176C14.2459 33.7368 14.7142 34.1187 15.5767 34.2379L15.9729 34.2934C16.4328 34.357 16.6499 34.4762 16.6499 34.6907C16.6499 34.9843 16.3444 35.1518 15.7708 35.1518C15.1899 35.1518 14.7706 34.969 14.4879 34.7545L14.0938 35.3984C14.5537 35.732 15.1346 35.8912 15.7637 35.8912C16.8776 35.8912 17.5232 35.3748 17.5232 34.6518C17.5232 33.9843 17.0151 33.6352 16.1757 33.516L15.7804 33.4596C15.4173 33.4133 15.1264 33.3414 15.1264 33.0869C15.1264 32.8092 15.4007 32.6422 15.8608 32.6422C16.3531 32.6422 16.8297 32.825 17.0633 32.9677L17.4264 32.3002L17.425 32.2993ZM28.2469 31.9027C27.7631 31.9027 27.4479 32.1255 27.231 32.4592V31.9974H26.3998V35.7945H27.2386V33.666C27.2386 33.0376 27.5128 32.6885 28.0611 32.6885C28.2406 32.6859 28.4189 32.7184 28.5856 32.784L28.8441 32.0057C28.6584 31.9337 28.4164 31.9021 28.2465 31.9021L28.2469 31.9027ZM21.0898 31.9974H19.7183V30.8454H18.8704V31.9974H18.0881V32.7521H18.8704V34.4843C18.8704 35.3653 19.2178 35.8901 20.2099 35.8901C20.574 35.8901 20.9932 35.779 21.2592 35.5965L21.0169 34.8894C20.7667 35.0322 20.4924 35.1041 20.2743 35.1041C19.8551 35.1041 19.7183 34.8496 19.7183 34.4686V32.7528H21.0898V31.9974ZM8.55041 35.7954V33.4124C8.55041 32.5149 7.96949 31.9111 7.03301 31.903C6.54069 31.8949 6.03285 32.0457 5.6773 32.5786C5.41128 32.1575 4.99204 31.903 4.40266 31.903C3.9907 31.903 3.58815 32.0221 3.27301 32.4668V31.9974H2.43359V35.7945H3.27959V33.6891C3.27959 33.0299 3.65089 32.6797 4.22429 32.6797C4.78124 32.6797 5.06301 33.0371 5.06301 33.6808V35.794H5.91089V33.6886C5.91089 33.0295 6.29793 32.6792 6.85465 32.6792C7.42734 32.6792 7.70065 33.0367 7.70065 33.6803V35.7936L8.55041 35.7954Z" fill="#231F20"/>
<path d="M46.5522 23.1644V22.6091H46.4054L46.2355 22.9902L46.0665 22.6091H45.9192V23.1644H46.0235V22.7461L46.1824 23.107H46.2905L46.4493 22.7452V23.1644H46.5527H46.5522ZM45.6205 23.1644V22.7042H45.8085V22.6105H45.3281V22.7042H45.5161V23.1644H45.6195H45.6205Z" fill="#F79410"/>
<path d="M29.8586 25.5458H17.1484V3.05737H29.8589L29.8586 25.5458Z" fill="#FF5F00"/>
<path d="M17.954 14.3015C17.954 9.7397 20.1235 5.67605 23.5019 3.05726C20.9446 1.07205 17.7817 -0.0053932 14.5251 -0.000655831C6.50292 -0.000655831 0 6.40253 0 14.3015C0 22.2004 6.50292 28.6036 14.5251 28.6036C17.7818 28.6084 20.9448 27.531 23.5021 25.5457C20.124 22.9274 17.954 18.8635 17.954 14.3015Z" fill="#EB001B"/>
<path d="M47.0062 14.3015C47.0062 22.2005 40.5033 28.6036 32.4811 28.6036C29.2241 28.6083 26.0607 27.5309 23.5029 25.5457C26.8822 22.9269 29.0518 18.8635 29.0518 14.3015C29.0518 9.7395 26.8822 5.67608 23.5029 3.05729C26.0607 1.07214 29.2239 -0.00527964 32.4809 -0.000625856C40.5031 -0.000625856 47.006 6.40256 47.006 14.3015" fill="#F79E1B"/>
</g>
<defs>
<clipPath id="clip0">
<rect width="47" height="36" fill="white"/>
</clipPath>
</defs>
</svg>
