<svg width="54" height="18" viewBox="0 0 54 18" fill="none" xmlns="http://www.w3.org/2000/svg">
<path d="M23.4189 17.4459H19.0239L21.7707 0.564915H26.1661L23.4189 17.4459ZM15.3265 0.564915L11.1365 12.1758L10.6407 9.67552L10.6412 9.67642L9.16233 2.08485C9.16233 2.08485 8.98351 0.564915 7.07749 0.564915H0.150616L0.0693359 0.85075C0.0693359 0.85075 2.18759 1.29147 4.66663 2.78025L8.48499 17.4464H13.0642L20.0566 0.564915H15.3265ZM49.8954 17.4459H53.931L50.4124 0.564463H46.8795C45.248 0.564463 44.8506 1.8225 44.8506 1.8225L38.2958 17.4459H42.8773L43.7935 14.9384H49.3806L49.8954 17.4459ZM45.0592 11.4745L47.3685 5.15724L48.6676 11.4745H45.0592ZM38.6395 4.62441L39.2667 0.999311C39.2667 0.999311 37.3313 0.263275 35.3138 0.263275C33.1327 0.263275 27.9534 1.21651 27.9534 5.85174C27.9534 10.2129 34.0322 10.2671 34.0322 12.5578C34.0322 14.8486 28.5797 14.4381 26.7802 12.9936L26.1268 16.7839C26.1268 16.7839 28.0893 17.7372 31.0876 17.7372C34.0869 17.7372 38.6115 16.1843 38.6115 11.9577C38.6115 7.56856 32.478 7.1599 32.478 5.25162C32.4784 3.34289 36.7587 3.58808 38.6395 4.62441Z" fill="#2566AF"/>
</svg>
