<svg width="24" height="24" viewBox="0 0 24 24" fill="none" xmlns="http://www.w3.org/2000/svg">
<path d="M23.5861 19.8621H0.413811C0.185296 19.8621 0 19.6768 0 19.4483V4.5518C0 4.32329 0.185296 4.13799 0.413811 4.13799H23.5861C23.8147 4.13799 24 4.32329 24 4.5518V19.4483C23.9999 19.6768 23.8146 19.8621 23.5861 19.8621Z" fill="#41479B"/>
<path d="M23.9999 4.5518C23.9999 4.32329 23.8146 4.13799 23.5861 4.13799H21.7348L14.0689 9.16049V4.13799H9.93095V9.16049L2.26508 4.13799H0.413811C0.185296 4.13799 0 4.32329 0 4.5518V5.622L6.57696 9.93106H0V14.069H6.57696L0 18.3781V19.4483C0 19.6768 0.185296 19.8621 0.413811 19.8621H2.26513L9.93104 14.8396V19.8621H14.069V14.8396L21.7349 19.8621H23.5862C23.8147 19.8621 24 19.6768 24 19.4483V18.3781L17.423 14.069H23.9999V9.93111H17.4229L23.9999 5.622V4.5518Z" fill="#F5F5F5"/>
<path d="M23.9999 10.7587H13.2413V4.13799H10.7586V10.7587H0V13.2414H10.7586V19.8621H13.2413V13.2414H23.9999V10.7587Z" fill="#FF4B55"/>
<path d="M8.38815 14.0691L0.0117188 19.5065C0.0410155 19.7063 0.20578 19.8622 0.413764 19.8622H0.983715L9.90821 14.0692H8.38815V14.0691Z" fill="#FF4B55"/>
<path d="M16.2369 14.0691H14.7168L23.6283 19.8537C23.836 19.8315 24 19.6619 24 19.4484V19.1082L16.2369 14.0691Z" fill="#FF4B55"/>
<path d="M0 5.00872L7.58336 9.93122H9.10342L0.241077 4.17847C0.0995152 4.24424 0 4.38556 0 4.55192V5.00872Z" fill="#FF4B55"/>
<path d="M15.589 9.93115L23.9856 4.48069C23.9507 4.28747 23.7895 4.13808 23.5862 4.13808H22.9933L14.069 9.93115H15.589Z" fill="#FF4B55"/>
</svg>
