<svg width="20" height="30" viewBox="0 0 20 30" fill="none" xmlns="http://www.w3.org/2000/svg">
<path d="M10 29.0625C14.1421 29.0625 17.5 28.0132 17.5 26.7188C17.5 25.4243 14.1421 24.375 10 24.375C5.85786 24.375 2.5 25.4243 2.5 26.7188C2.5 28.0132 5.85786 29.0625 10 29.0625Z" fill="#E1B87C"/>
<path d="M17.6479 16.0861C21.8671 9.96141 17.9179 1.32937 10.5487 0.951562C10.3668 0.942187 10.184 0.9375 10.0002 0.9375C9.81647 0.9375 9.63366 0.942187 9.45178 0.951562C2.08256 1.32937 -1.86666 9.96141 2.35256 16.0861L10.0002 27.1875L17.6479 16.0861Z" fill="#2C4C86"/>
<path d="M10.0004 15C12.7618 15 15.0004 12.7614 15.0004 10C15.0004 7.23858 12.7618 5 10.0004 5C7.23894 5 5.00037 7.23858 5.00037 10C5.00037 12.7614 7.23894 15 10.0004 15Z" fill="white"/>
</svg>
