<svg width="67" height="28" viewBox="0 0 67 28" fill="none" xmlns="http://www.w3.org/2000/svg">
<g clip-path="url(#clip0)">
<path d="M27.094 27.0284C26.9665 26.6866 26.7354 26.4535 26.568 26.1505C26.1616 25.63 25.6835 25.1794 25.2054 24.7288C25.0381 24.6744 24.9663 24.519 24.807 24.4568C24.7034 24.3248 24.536 24.2549 24.4006 24.1539C24.1296 23.9519 23.8348 23.7809 23.532 23.61C22.9583 23.2526 22.2491 23.0273 21.5478 22.7943C20.7908 22.6156 19.9939 22.4835 19.1652 22.3747C18.3444 22.2582 17.5237 22.1494 16.9021 21.8309C16.5435 21.7299 16.2806 21.5357 15.9698 21.3803C15.6829 21.1938 15.3721 21.0384 15.1331 20.8054C14.8383 20.6344 14.655 20.347 14.4239 20.1139C14.3442 19.9585 14.2087 19.8653 14.145 19.6944C14.0653 19.6633 14.0414 19.5701 13.9936 19.5157C13.9378 19.4535 13.9378 19.3292 13.8422 19.3059C13.7944 19.6244 13.8103 20.0051 13.8422 20.3314C13.882 20.4713 13.898 20.6422 13.9378 20.782C13.9617 20.9064 14.0812 21.1083 14.0334 21.2016C11.5472 21.0773 9.73038 20.3081 8.1526 19.2981C7.37167 18.7931 6.70231 18.1794 6.08076 17.519C5.80983 17.1539 5.51499 16.8042 5.27593 16.4002C5.0289 16.004 4.82172 15.5534 4.5986 15.1339C4.23204 14.2249 3.88939 13.2926 3.7619 12.1505C3.59456 11.0861 3.6344 9.72655 3.88143 8.73987C3.96908 8.19603 4.15236 7.73765 4.31173 7.26373C4.41532 7.0462 4.52688 6.82866 4.62251 6.60335C4.75797 6.41689 4.82969 6.16051 4.99703 5.99736C5.45124 5.16606 6.12857 4.54453 6.82184 3.94631C7.57089 3.41023 8.42353 2.97516 9.45148 2.71101C10.4396 2.49348 11.7863 2.45463 12.8541 2.67994C15.0215 3.11501 16.6551 4.06284 18.0257 5.27483C19.4122 6.46351 20.48 7.97072 21.2131 9.80424C21.9702 11.5445 22.2331 14.256 21.5558 16.2293C21.2769 16.0739 20.998 15.9263 20.7191 15.7787C20.3844 15.6855 20.0577 15.5767 19.6672 15.5379C19.1971 15.5301 18.7349 15.5379 18.4321 15.6855C19.0457 15.6233 19.5397 15.7865 19.9222 15.9263C20.1453 16.0118 20.2728 16.0662 20.4482 16.1672C20.7908 16.3614 21.0936 16.5401 21.3486 16.8042C22.0737 17.4258 22.5917 18.2493 22.8387 19.337C22.8387 19.3681 22.8786 19.3603 22.8706 19.3059C22.9025 19.2981 22.9184 19.2748 22.9344 19.2438C22.9742 19.1971 23.022 19.1505 23.0619 19.0961C23.1415 19.0029 23.2212 18.9097 23.277 18.7931C23.4443 18.5989 23.5798 18.3814 23.7073 18.1561C24.0021 17.7365 24.2253 17.2549 24.4803 16.7965C24.9185 15.8176 25.2771 14.761 25.5002 13.5645C25.9465 10.9075 25.4126 8.39026 24.4803 6.53343C23.524 4.66107 22.1853 3.16162 20.4561 2.0351C18.711 0.91634 16.671 0.09281 13.8661 0.0151185C13.8501 -0.0392655 13.8262 0.0228877 13.7705 0.0151185C12.2883 -0.0314963 11.093 0.170501 9.90569 0.465729C9.35586 0.644419 8.78212 0.799802 8.29603 1.04065C7.73823 1.21934 7.29199 1.51456 6.782 1.7321C6.59872 1.90302 6.31982 1.98848 6.12857 2.15163C5.88155 2.26817 5.69827 2.45463 5.45124 2.57117C5.05281 2.91301 4.63047 3.21601 4.24001 3.56562C3.85752 3.90746 3.52284 4.29592 3.15628 4.6533C3.1005 4.7776 3.00488 4.86307 2.90926 4.9563C2.84551 5.07283 2.76582 5.17383 2.66223 5.25929C2.62239 5.39914 2.49489 5.45352 2.44708 5.59336C2.34349 5.67106 2.31958 5.82644 2.20005 5.89636C2.09646 6.14497 1.91318 6.32366 1.79365 6.55674C1.65022 6.78204 1.53866 7.03066 1.39522 7.24819C1.1721 7.75319 0.933043 8.24264 0.749765 8.78648C0.558519 9.31479 0.399147 9.87416 0.287586 10.4802C0.168057 11.0473 0.0564967 11.7854 0.0724339 12.3836C-0.00725212 12.6011 0.0564967 13.0051 0.0724339 13.2615C0.0724339 13.3081 0.0405595 13.3237 0.0405595 13.3547C0.0405595 13.6422 0.120246 13.9918 0.136183 14.1705C0.199932 14.8309 0.319461 15.4446 0.510707 15.9807C0.630236 16.5789 0.885231 17.0451 1.06851 17.5812C1.34741 18.0318 1.53866 18.5678 1.87334 18.9718C2.12036 19.4457 2.47098 19.8187 2.80566 20.2071C3.16425 20.58 3.52284 20.9607 3.95314 21.2637C4.74203 21.9319 5.66639 22.4679 6.67841 22.9263C8.56696 23.8198 11.3878 24.4025 13.9219 24.2549C14.5673 24.1694 15.2207 24.0917 15.8104 23.9519C16.3523 23.7576 16.9818 23.6411 17.6352 23.5634C19.1254 23.4702 20.4163 23.6022 21.5638 23.9285C22.7272 24.2315 23.7312 24.6899 24.5998 25.2881C25.062 25.5523 25.4445 25.8941 25.8349 26.2204C26.2334 26.5545 26.5521 26.9663 26.9187 27.3392C26.9665 27.479 27.0621 27.58 27.1338 27.7044C27.2294 27.8054 27.1816 28.0384 27.4127 28.0073C27.5561 27.8675 27.3888 27.6655 27.3808 27.4946C27.2374 27.347 27.2055 27.1527 27.094 27.0284Z" fill="#FCB316"/>
<path d="M21.3083 18.7618C21.2764 18.7618 21.2684 18.7851 21.2445 18.7929C21.1887 18.9094 21.2127 19.0959 21.2445 19.2124C21.4119 19.5465 21.4676 19.9816 21.8342 20.1214C22.0095 20.067 21.9936 19.8184 21.9856 19.5776C21.9059 19.2823 21.7944 19.0182 21.6111 18.824C21.4836 18.7773 21.3959 18.6997 21.3083 18.7618ZM19.1408 19.6086C19.1408 19.5931 19.1169 19.5776 19.1089 19.6086C18.8061 19.5698 18.7025 19.733 18.5511 19.8495C18.2882 20.5254 18.7105 21.1858 19.4516 21.178C19.7464 21.1081 19.9297 20.9216 19.9775 20.6031C19.9377 20.0359 19.6907 19.6708 19.1408 19.6086Z" fill="#FCB316"/>
<path d="M37.006 17.4576C37.1255 17.947 37.3805 18.2966 37.6674 18.6229C37.9543 18.9493 38.2889 19.2212 38.6953 19.4232C39.0778 19.6562 39.4922 19.8505 39.9703 19.9826C40.2014 20.0602 40.4245 20.1535 40.7114 20.1845C40.9106 20.2933 41.1497 20.3477 41.1656 20.6274C41.1576 20.9615 40.9265 21.0858 40.6317 21.1479C40.3369 21.0858 39.9703 21.0935 39.7233 20.9848C39.1017 20.9148 38.5997 20.7206 38.0738 20.5419C37.0697 20.1612 36.2251 19.6096 35.5238 18.9337C35.3804 18.7006 35.1812 18.5142 35.0298 18.2889C34.8784 18.0636 34.7748 17.7917 34.6154 17.5663C33.3882 17.411 32.5515 16.8671 31.8184 16.2378C31.1411 15.4842 30.5992 14.583 30.3761 13.3865C30.1131 12.2367 30.1928 10.7994 30.5036 9.68843C31.1809 7.53638 32.5994 6.10686 35.2768 5.91263C36.0179 5.93594 36.6633 6.0214 37.253 6.23893C37.8507 6.4487 38.4164 6.83716 38.8627 7.24115C38.9025 7.27223 38.9185 7.28 38.9424 7.31884C39.038 7.45092 39.2691 7.63738 39.3966 7.80053C39.4205 7.83161 39.4125 7.88599 39.4364 7.92484C39.4842 7.99476 39.5559 8.02584 39.6038 8.08799C39.6277 8.12683 39.6197 8.17345 39.6436 8.20453C39.6755 8.25114 39.7153 8.32106 39.7631 8.40652C39.7791 8.4376 39.8348 8.46091 39.8428 8.48422C39.9145 8.61629 39.9464 8.77944 40.0101 8.92706C40.0739 9.08244 40.1616 9.21451 40.2173 9.3699C40.3767 9.82828 40.4803 10.3721 40.544 10.9315C40.7034 12.5475 40.3767 13.9925 39.7631 15.0647C39.4763 15.6241 39.0778 16.0824 38.6077 16.4709C38.1774 16.9137 37.5877 17.1779 37.006 17.4576ZM35.0298 7.34215C34.6712 7.36546 34.456 7.52861 34.1612 7.62184C33.97 7.79276 33.7309 7.92484 33.5875 8.14237C33.3484 8.27445 33.2846 8.56968 33.0934 8.7406C32.934 9.12905 32.7826 9.56413 32.679 10.0691C32.5834 10.5663 32.5197 11.1257 32.5117 11.6773C32.5037 13.0602 32.8065 14.4354 33.3723 15.2511C33.707 15.6474 34.1134 15.9737 34.6074 16.2145C34.8943 16.2378 35.1174 16.3311 35.4282 16.3388C35.6035 16.2767 35.8904 16.3388 36.0019 16.2145C36.2569 16.2301 36.3127 16.0669 36.5358 16.0514C36.6554 15.9348 36.7829 15.8416 36.9502 15.7717C37.1016 15.6085 37.245 15.4454 37.4044 15.29C37.4841 15.1734 37.5319 15.0103 37.6514 14.9248C38.3686 13.5885 38.4483 11.1413 37.9782 9.58743C37.8028 9.02029 37.5558 8.56191 37.2769 8.18122C36.9741 7.87822 36.6155 7.62184 36.2091 7.41984C35.8824 7.34992 35.5716 7.26446 35.1413 7.30331C35.1174 7.30331 35.0935 7.31107 35.1015 7.34215C35.0856 7.34215 35.0616 7.34215 35.0298 7.34215ZM43.7235 6.21562C44.369 6.23893 45.126 6.16124 45.6997 6.25447C45.8272 6.4487 45.7794 6.68177 45.7794 6.89931C45.8272 9.84382 45.7794 13.0059 45.7794 16.0125C45.7794 16.2534 45.7874 16.502 45.7794 16.735C45.7714 16.937 45.8272 17.1546 45.6997 17.341C45.4129 17.411 44.9985 17.3799 44.6319 17.3799C44.2415 17.3799 43.859 17.4343 43.604 17.3022C43.5323 13.7439 43.5323 9.90597 43.604 6.33993C43.6199 6.27778 43.6598 6.23893 43.7235 6.21562ZM48.6641 6.21562H50.6004C50.7757 6.4487 50.8315 6.79831 50.8873 7.14015C51.469 9.29998 52.0427 11.4676 52.5766 13.6818C52.7041 13.6973 52.6643 13.5497 52.7041 13.4798C52.7599 13.4254 52.728 13.2933 52.7838 13.2389C52.8077 13.0602 52.9193 12.967 52.9113 12.7572C53.0547 12.4853 53.1026 12.1124 53.238 11.8327C53.4054 11.1801 53.6285 10.5741 53.8197 9.94481C54.003 9.29221 54.25 8.70175 54.3935 8.01807C54.6644 7.46646 54.7282 6.71285 55.0549 6.21562H55.8756C56.1705 6.75947 56.282 7.482 56.537 8.06468C56.7044 8.71729 56.9355 9.30775 57.1108 9.95258C57.5172 11.2034 57.9395 12.4387 58.3061 13.7284C58.4734 13.4875 58.4734 13.0835 58.5929 12.8039C58.6646 12.4853 58.7284 12.159 58.84 11.8793C59.1587 10.6052 59.4615 9.32328 59.8281 8.10353C59.9635 7.46646 60.099 6.81385 60.3221 6.25447C60.8002 6.18455 61.5333 6.18455 62.0115 6.25447C62.0513 6.72839 61.8282 7.24115 61.6847 7.66069C61.6051 8.17345 61.4138 8.56968 61.3102 9.0669C61.0154 9.97589 60.7923 10.9393 60.4895 11.8405C60.2584 12.8039 59.9476 13.6895 59.7085 14.6529C59.5492 15.0958 59.4376 15.5852 59.2942 16.0591C59.1348 16.4942 59.079 17.0303 58.84 17.3877H57.6845C57.3897 16.8827 57.2861 16.199 57.0231 15.6629C56.4494 13.8915 55.8119 12.1901 55.2541 10.4032C55.0628 10.5974 55.0628 10.9936 54.9274 11.2423C54.8397 11.5453 54.7521 11.8483 54.6405 12.1279C54.4811 12.7417 54.2421 13.2622 54.1066 13.8915C53.8755 14.4431 53.7082 15.0569 53.5329 15.6629C53.2938 16.1912 53.2062 16.8671 52.9113 17.3488C52.6085 17.442 52.1304 17.3643 51.7559 17.3877C51.469 17.0691 51.4371 16.4942 51.2618 16.0591C51.1263 15.6085 51.0307 15.1113 50.8554 14.6918C50.6323 13.7129 50.2976 12.8505 50.0745 11.8793C49.7797 10.9781 49.5247 10.038 49.2537 9.10575C49.1023 8.66291 48.9908 8.18899 48.8394 7.73838C48.7676 7.25669 48.433 6.82162 48.5525 6.29332C48.5684 6.25447 48.6162 6.23116 48.6641 6.21562ZM64.928 6.21562C65.5734 6.23893 66.3225 6.16124 66.9042 6.25447C67.0476 6.674 66.9839 7.12461 66.9839 7.57523V16.0047C66.9839 16.4631 67.0396 16.906 66.9042 17.3333C66.4579 17.3799 65.8045 17.4032 65.2547 17.3721C65.0953 17.3643 64.9041 17.411 64.8005 17.2944C64.657 16.8749 64.7208 16.432 64.7208 15.9659V7.62184C64.7208 7.11685 64.673 6.62739 64.8005 6.29332C64.8323 6.25447 64.8801 6.23116 64.928 6.21562Z" fill="#0269B3"/>
</g>
<defs>
<clipPath id="clip0">
<rect width="67" height="28" fill="white"/>
</clipPath>
</defs>
</svg>
