<svg width="20" height="23" viewBox="0 0 20 23" fill="none" xmlns="http://www.w3.org/2000/svg">
<path opacity="0.6" d="M9.625 11.75C12.6328 11.75 15.125 9.30078 15.125 6.25C15.125 3.24219 12.6328 0.75 9.625 0.75C6.57422 0.75 4.125 3.24219 4.125 6.25C4.125 9.30078 6.57422 11.75 9.625 11.75ZM13.4492 13.125H12.7188C11.7734 13.5977 10.7422 13.8125 9.625 13.8125C8.50781 13.8125 7.43359 13.5977 6.48828 13.125H5.75781C2.57812 13.125 0 15.7461 0 18.9258V20.6875C0 21.8477 0.902344 22.75 2.0625 22.75H17.1875C18.3047 22.75 19.25 21.8477 19.25 20.6875V18.9258C19.25 15.7461 16.6289 13.125 13.4492 13.125Z" fill="#1F468F"/>
</svg>
