<svg width="16" height="16" viewBox="0 0 16 16" fill="none" xmlns="http://www.w3.org/2000/svg">
<path d="M10.9062 3.09375C9.21875 3.09375 7.84375 2 5.75 2C4.96875 2 4.28125 2.15625 3.625 2.40625C3.6875 2.1875 3.71875 2 3.71875 1.78125C3.71875 1.71875 3.71875 1.6875 3.71875 1.65625C3.6875 0.78125 2.9375 0.0625 2.0625 0.03125C1.0625 -0.03125 0.25 0.78125 0.25 1.75C0.25 2.375 0.53125 2.875 1 3.1875V15.25C1 15.6875 1.3125 16 1.75 16H2.25C2.65625 16 3 15.6875 3 15.25V12.3125C3.875 11.9375 4.96875 11.625 6.5625 11.625C8.25 11.625 9.625 12.7188 11.7188 12.7188C13.2188 12.7188 14.4375 12.1875 15.5625 11.4375C15.8125 11.25 16 10.9375 16 10.625V3C16 2.28125 15.2188 1.8125 14.5625 2.09375C13.5 2.59375 12.1875 3.09375 10.9062 3.09375Z" fill="#1F468F"/>
</svg>
