<svg width="26" height="35" viewBox="0 0 26 35" fill="none" xmlns="http://www.w3.org/2000/svg">
<path d="M22.5625 0.25H3.4375C1.64453 0.25 0.25 1.71094 0.25 3.4375V31.0625C0.25 32.8555 1.64453 34.25 3.4375 34.25H22.5625C24.2891 34.25 25.75 32.8555 25.75 31.0625V3.4375C25.75 1.71094 24.2891 0.25 22.5625 0.25ZM13 8.75C15.3242 8.75 17.25 10.6758 17.25 13C17.25 15.3906 15.3242 17.25 13 17.25C10.6094 17.25 8.75 15.3906 8.75 13C8.75 10.6758 10.6094 8.75 13 8.75ZM20.4375 24.4883C20.4375 25.2188 19.7734 25.75 18.9102 25.75H7.02344C6.22656 25.75 5.5625 25.2188 5.5625 24.4883V23.2266C5.5625 21.1016 7.55469 19.375 10.0117 19.375H10.3438C11.1406 19.7734 12.0039 19.9062 13 19.9062C13.9297 19.9062 14.793 19.7734 15.5898 19.375H15.9219C18.3789 19.375 20.4375 21.1016 20.4375 23.2266V24.4883Z" fill="#1F468F"/>
</svg>
