<svg width="20" height="20" viewBox="0 0 20 20" fill="none" xmlns="http://www.w3.org/2000/svg">
<path d="M17.875 7.6875H11.6875V1.5C11.6875 0.769531 11.043 0.125 10.3125 0.125H8.9375C8.16406 0.125 7.5625 0.769531 7.5625 1.5V7.6875H1.375C0.601562 7.6875 0 8.33203 0 9.0625V10.4375C0 11.2109 0.601562 11.8125 1.375 11.8125H7.5625V18C7.5625 18.7734 8.16406 19.375 8.9375 19.375H10.3125C11.043 19.375 11.6875 18.7734 11.6875 18V11.8125H17.875C18.6055 11.8125 19.25 11.2109 19.25 10.4375V9.0625C19.25 8.33203 18.6055 7.6875 17.875 7.6875Z" fill="#1F468F"/>
</svg>
