<svg width="60" height="60" viewBox="0 0 60 60" fill="none" xmlns="http://www.w3.org/2000/svg">
<path d="M25 39C25 39 24.2112 41.7418 23 43C22.6833 43.329 22.3487 43.5654 22 43.7355M35 39C35 39 35.7888 41.7418 37 43C39.1023 45.1839 41.998 43.2887 44.5 45C46.9176 46.6536 48.044 48.2315 49 51C49.6545 52.8952 49.4689 55.6528 49.252 57.3853C49.1337 58.3298 48.3156 59 47.3637 59H12.6363C11.6844 59 10.8663 58.3298 10.7481 57.3853C10.5311 55.6528 10.3456 52.8952 11 51C11.956 48.2315 13.0825 46.6536 15.5 45C15.6651 44.8871 15.8319 44.7899 16 44.7062M18 19V27C18 33.6274 23.3726 39 30 39V39C36.6275 39 42 33.6274 42 27V19.9949C42 19.4446 41.5541 19.0052 41.0058 18.959C38.1137 18.7157 37.3187 17.3605 37 14C31.7789 17.703 28.4608 18.9445 22 20M22 43.7355L28.8255 48.2271C29.5302 48.6908 30.45 48.6625 31.1249 48.1564L34 46M22 43.7355C20.187 44.6202 17.9967 43.7121 16 44.7062M47 41C51.2289 34.8734 50.7207 30.9052 46.3017 23.5008C46.1071 23.1747 46.0046 22.7909 46.0104 22.4112C46.2489 6.53601 43.0743 1.15757 30 1C16.9636 1.22735 13.9065 6.57653 13.9956 22.4399C13.9977 22.8016 13.9005 23.1689 13.7202 23.4825C8.36903 32.7926 8.47 37.5839 16 44.7062" stroke="#1F468F" stroke-width="2" stroke-linecap="round" stroke-linejoin="round"/>
</svg>
