<svg width="60" height="60" viewBox="0 0 60 60" fill="none" xmlns="http://www.w3.org/2000/svg">
<path d="M24 59H6C4.89543 59 4 58.1046 4 57V3C4 1.89543 4.89543 1 6 1H48C49.1046 1 50 1.89543 50 3V25M10 7H44M10 11H44M10 17H35M10 21H35M10 27H27M10 31H27M42 44H42.1538C49.8009 44 56 50.1991 56 57.8462V57.8462C56 58.4834 55.4834 59 54.8462 59H31.1538C30.5166 59 30 58.4834 30 57.8462V56C30 49.3726 35.3726 44 42 44V44ZM12 43H20C21.1046 43 22 42.1046 22 41V41C22 39.8954 21.1046 39 20 39H12C10.8954 39 10 39.8954 10 41V41C10 42.1046 10.8954 43 12 43Z" stroke="#1F468F" stroke-width="2" stroke-linecap="round" stroke-linejoin="round"/>
<circle cx="42" cy="36" r="8" stroke="#1F468F" stroke-width="2"/>
</svg>
