<svg width="14" height="13" viewBox="0 0 14 13" fill="none" xmlns="http://www.w3.org/2000/svg">
<path d="M8.75 8.9375C8.75 9.18359 8.53125 9.375 8.3125 9.375H5.6875C5.44141 9.375 5.25 9.18359 5.25 8.9375V7.625H0V11.5625C0 12.2734 0.601562 12.875 1.3125 12.875H12.6875C13.3711 12.875 14 12.2734 14 11.5625V7.625H8.75V8.9375ZM12.6875 3.25H10.5V1.9375C10.5 1.25391 9.87109 0.625 9.1875 0.625H4.8125C4.10156 0.625 3.5 1.25391 3.5 1.9375V3.25H1.3125C0.601562 3.25 0 3.87891 0 4.5625V6.75H14V4.5625C14 3.87891 13.3711 3.25 12.6875 3.25ZM8.75 3.25H5.25V2.375H8.75V3.25Z" fill="white"/>
</svg>
