<svg width="181" height="58" viewBox="0 0 181 58" fill="none" xmlns="http://www.w3.org/2000/svg">
<path d="M6.80589 22.7239C7.46419 22.7239 7.90417 22.2912 7.90417 21.642C7.90417 20.9928 7.46419 20.56 6.80589 20.56C6.1476 20.56 5.70874 20.9917 5.70874 21.642C5.70874 22.2901 6.1476 22.7239 6.80589 22.7239ZM9.44018 20.56C10.0996 20.56 10.7579 19.9098 10.7579 19.2606C10.7579 18.6125 10.0996 18.1787 9.44018 18.1787C8.78189 18.1787 8.1236 18.8278 8.1236 19.477C8.1236 20.1262 8.78189 20.56 9.44018 20.56ZM12.7339 18.1787C13.3922 18.1787 14.0505 17.5306 14.0505 16.8803C14.0505 16.2312 13.3922 15.582 12.7339 15.582C12.0756 15.582 11.4162 16.2312 11.4162 16.8803C11.4162 17.5295 12.0756 18.1787 12.7339 18.1787ZM19.9785 14.2837C20.8573 14.2837 21.5156 13.6345 21.5156 12.7678C21.5156 11.9023 20.8573 11.2531 19.9785 11.2531C19.1007 11.2531 18.4413 11.9023 18.4413 12.7689C18.4413 13.6345 19.1007 14.2837 19.9785 14.2837ZM16.2459 16.2312C17.0956 16.2312 17.783 15.5534 17.783 14.7153C17.783 13.8805 17.0956 13.2017 16.2459 13.2017C15.3973 13.2017 14.7099 13.8794 14.7099 14.7164C14.7099 15.5523 15.3973 16.2312 16.2459 16.2312ZM24.5887 12.5526C25.4676 12.5526 26.3453 11.6859 26.3453 10.8203C26.3453 9.95479 25.4676 9.08923 24.5887 9.08923C23.711 9.08923 22.8333 9.95479 22.8333 10.8203C22.8333 11.9023 23.711 12.5515 24.5887 12.5515V12.5526ZM29.199 11.687C30.2973 11.687 31.175 10.8203 31.175 9.7384C31.175 8.65645 30.2973 7.7909 29.199 7.7909C28.1019 7.7909 27.2242 8.65645 27.2242 9.7384C27.2242 10.8203 28.3213 11.6859 29.199 11.6859V11.687Z" fill="#1C448E"/>
<path d="M8.34277 23.5897C14.9291 18.3953 25.9062 15.1494 30.9553 14.2839C32.4925 16.2314 34.0296 19.6936 34.249 20.9919C33.8102 14.2839 32.273 12.1189 32.273 12.1189C26.3451 13.4183 16.0262 16.8805 8.34277 23.5897ZM35.5656 6.70916L33.5907 8.44027L32.9313 11.6861L36.8833 9.73861L40.8353 11.6861L40.3965 8.87415L37.9816 6.49277L40.177 7.35833L43.2502 4.32888L38.8593 3.67861L36.8833 0L35.1268 3.46222L36.0056 4.76166L36.4445 5.40973L36.6639 5.62721V5.8436L36.4445 5.62721L36.225 5.41082L35.5656 4.97805L34.4685 4.11249L34.249 3.895L30.5165 4.32888L33.3713 7.14084L35.5656 6.70916Z" fill="#E1B87C"/>
<path d="M66.9611 22.7239C67.6194 22.7239 68.0594 22.2912 68.0594 21.642C68.0594 20.9928 67.6194 20.56 66.9623 20.56C66.3029 20.56 65.8651 20.9917 65.8651 21.642C65.8651 22.2901 66.3029 22.7239 66.9623 22.7239H66.9611ZM64.3269 20.7764C65.0546 20.7764 65.6434 20.1943 65.6434 19.477C65.6434 18.7597 65.0546 18.1787 64.3269 18.1787C63.5991 18.1787 63.0091 18.7608 63.0091 19.477C63.0087 19.6472 63.0424 19.8158 63.1084 19.9733C63.1744 20.1307 63.2713 20.2738 63.3937 20.3945C63.5161 20.5151 63.6614 20.611 63.8216 20.6765C63.9817 20.742 64.1534 20.776 64.3269 20.7764ZM61.0332 18.1787C61.6926 18.1787 62.3509 17.5306 62.3509 16.8803C62.3509 16.2312 61.6926 15.582 61.0332 15.582C60.3749 15.582 59.7166 16.2312 59.7166 16.8803C59.7166 17.5295 60.3749 18.1787 61.0332 18.1787ZM53.7886 14.2837C54.6663 14.2837 55.3257 13.6345 55.3257 12.7678C55.3257 11.9023 54.6663 11.2531 53.7886 11.2531C52.9109 11.2531 52.2514 11.9023 52.2514 12.7689C52.032 13.6345 52.9109 14.2837 53.7886 14.2837ZM57.5211 16.2312C58.3989 16.2312 59.0572 15.582 59.0572 14.7153C59.0572 13.8509 58.3989 13.2017 57.5211 13.2017C56.6423 13.2017 55.984 13.8498 55.984 14.7164C55.984 15.582 56.6423 16.2312 57.5211 16.2312ZM49.1783 12.5526C50.056 12.5526 50.9349 11.6859 50.9349 10.8203C50.9349 9.95479 50.056 9.08923 49.1783 9.08923C48.2994 9.08923 47.4217 9.95479 47.4217 10.8203C47.4217 11.9023 48.2994 12.5515 49.1783 12.5515V12.5526ZM42.592 9.7384C42.592 10.8203 43.4697 11.6859 44.568 11.6859C45.4457 11.6859 46.3235 10.8203 46.3235 9.7384C46.3235 8.65645 45.4457 7.7909 44.3486 7.7909C43.4697 7.7909 42.5909 8.65645 42.5909 9.7384H42.592ZM36.8834 16.2312C36.2252 16.2312 35.5657 16.8803 35.5657 17.5295C35.5657 18.1787 36.2263 18.8278 36.8834 18.8278C37.5417 18.8278 38.2012 18.1798 38.2012 17.5295C38.2012 16.8803 37.5417 16.2312 36.8834 16.2312ZM36.8834 12.3351C36.0057 12.3351 35.3463 12.9853 35.3463 13.8509C35.3463 14.7164 36.0057 15.3656 36.8834 15.3656C37.7623 15.3656 38.4206 14.7164 38.4206 13.8498C38.4206 13.2017 37.7623 12.3351 36.8834 12.3351Z" fill="#1C448E"/>
<path d="M39.5178 21.2085V21.6423C39.7373 20.3429 41.2744 16.2315 42.8115 14.2829C47.8607 15.1496 58.8378 18.3954 65.4241 23.5898C57.7407 16.8807 47.4218 13.4185 41.7132 12.119C41.7132 12.119 39.9578 14.2829 39.5178 21.2085Z" fill="#E1B87C"/>
<path d="M30.9554 56.2689C27.8822 56.0525 25.0285 55.8361 22.1737 55.1869C19.1005 54.7542 16.2457 54.105 13.392 53.023C12.7337 53.4547 12.2948 53.6711 12.2948 53.8886C12.2948 55.1869 23.0525 58 36.8834 58C50.7153 58 61.4731 55.1869 61.4731 53.8886C61.4731 52.5892 50.7142 49.3433 36.8834 49.3433C32.0536 49.3433 27.4434 49.7761 23.7108 50.2089C26.2892 51.0607 28.9321 51.7119 31.6148 52.1564C27.4434 52.1564 23.4914 51.94 19.3199 51.0744C18.2217 51.2908 17.3439 51.5072 16.4651 51.7236C18.4422 52.3728 20.1977 53.022 22.1737 53.4547C25.0285 54.105 27.8822 54.5378 30.7359 54.9705C33.5908 55.1869 36.6639 55.4033 39.5177 55.4033C42.3725 55.4033 45.4456 55.1869 48.2994 54.9705C45.4445 55.4033 42.3725 55.8361 39.5177 55.8361C36.8834 56.4842 33.8102 56.4842 30.9554 56.2689Z" fill="#1C448E"/>
<path d="M69.8148 30.0824C69.8148 30.2988 70.0354 30.5152 70.0354 30.948C70.2548 32.2463 70.2548 33.5446 69.8148 34.6277C69.8148 33.3282 69.5954 32.2463 68.9371 31.3807C68.5175 30.5341 67.8222 29.8488 66.9611 29.4332C66.3028 29.4332 65.424 29.866 65.2045 30.5152C64.5462 32.4627 63.0091 37.8735 62.3508 39.1708C62.7897 39.3882 65.2045 39.1708 66.5222 38.3063C66.0521 38.9859 65.4563 39.5731 64.7657 40.0374C62.7897 41.3357 60.3748 41.5521 58.1794 40.903C54.6663 40.0374 54.4468 35.0594 54.4468 33.1119L58.1794 35.4921L57.96 32.2463L56.4228 29.4332L57.7405 29.866L62.1314 26.6191L57.7405 24.888L55.5451 25.7535L56.4228 24.2377L54.6663 19.4772L52.2514 23.1569L52.9108 27.701L50.9348 24.0213L46.104 24.6716L49.1782 28.1338L52.9108 28.3502L49.8365 29.2169L48.52 34.4102L50.056 33.761C51.3737 32.6791 52.2514 31.1644 52.9108 29.4332C52.9108 30.5152 52.6903 31.5971 52.2514 32.8955C51.5931 35.0594 50.056 37.656 48.08 38.5227C45.8846 39.3882 43.0308 39.1708 41.0548 37.6571C39.7371 36.5741 38.8594 34.843 38.64 33.1119C39.2983 34.843 43.0308 37.656 43.4697 37.0069V25.3208C43.4697 24.0224 42.1531 23.1569 41.0548 23.3733C40.3965 23.5896 39.7371 24.2388 39.0788 24.2388C39.0788 23.1569 39.2983 20.9919 37.1028 20.9919C35.3463 20.9919 35.1268 22.7241 35.1268 23.806C35.7863 24.6716 36.0057 25.3208 36.2251 26.1863C35.5657 25.1044 34.688 24.2388 33.8103 23.806C33.3703 23.5896 32.9314 23.3733 32.4926 23.3733C31.6148 23.3733 30.736 24.2388 30.736 25.3208V37.008C31.3954 37.8735 34.9074 33.9774 35.5657 32.6791C35.3463 34.6266 34.688 36.3588 33.1508 37.4407C31.1749 38.9555 28.3211 39.1719 26.1257 38.3063C24.1497 37.4407 22.6126 34.843 21.9543 32.6791L25.9063 34.1949L24.808 29.866L23.272 28.1338L24.5886 28.3502L28.1017 24.2388L23.272 23.5896L21.7348 24.6716L22.1737 23.1558L19.1006 19.4772L17.344 23.3733L18.8811 27.701L16.0263 24.6716L11.1966 26.6191L14.9291 29.2158L18.8811 28.5677L15.5874 30.2988L15.1486 35.4921L17.344 33.9774C18.2217 32.6791 18.6617 31.1644 19.1006 29.6496C19.32 31.3807 19.32 33.1119 18.8811 35.0594C18.6617 37.2233 17.7829 40.2538 15.1486 41.1194C12.9531 41.7685 10.5383 41.5521 8.56228 40.2538C7.87166 39.7895 7.27585 39.2023 6.80571 38.5227C8.34285 38.9555 10.7577 39.1708 11.1966 38.9555C10.7577 37.656 9.00114 32.0299 8.34285 30.2988C8.12342 29.6496 7.68344 29.2169 7.02515 29.2169C6.2783 29.7066 5.6732 30.3775 5.26858 31.1644C4.61029 32.0299 4.39086 33.3282 4.39086 34.4102C3.95199 33.3282 3.95199 32.0299 4.17142 30.7305V30.5152C3.51313 29.6496 1.53714 28.3502 0 28.9983C0 28.1327 5.48801 43.0658 4.39086 48.2602C4.39086 48.2602 4.39086 48.4766 4.39086 48.2602C4.17142 47.8274 8.34285 51.9399 9.87887 53.2371C14.9291 49.7749 25.6868 48.0438 36.664 48.0438C47.6411 48.0438 58.3988 49.7749 63.448 53.2371C64.9851 51.9388 68.9371 47.8274 68.9371 48.2602C67.84 43.0658 73.328 28.1327 73.328 28.9994C72.2308 28.5655 70.4742 29.2158 69.8148 30.0813V30.0824ZM9.44 49.5596C8.78171 49.9924 7.68344 49.3432 6.80571 48.2613C6.14742 47.1793 6.14742 45.881 6.80571 45.4482C7.46401 45.0144 8.56228 45.6646 9.44 46.7466C10.0994 48.0449 10.3188 49.1268 9.44 49.5585V49.5596ZM15.1486 46.3138C14.4903 46.5302 14.0503 46.3138 13.8309 45.6635C13.6114 45.0155 13.8309 44.5816 14.4903 44.3652C15.1486 44.1488 15.5874 44.3652 15.8069 45.0144C16.0263 45.6635 15.8069 46.3138 15.1486 46.3138ZM22.3931 46.3138C20.4171 46.5302 18.6617 45.6635 18.4411 44.3652C18.2217 43.0669 19.5394 41.5521 21.5154 41.3357C23.4914 41.1194 25.248 41.9849 25.4674 43.2832C25.9063 44.7991 24.3691 46.0974 22.3931 46.3138ZM30.2971 43.4996C29.6388 43.4996 29.2 43.0669 29.2 42.4177C29.2 41.7685 29.6388 41.3357 30.2971 41.3357C30.9554 41.3357 31.3954 41.7685 31.3954 42.4177C31.3954 43.0669 30.9554 43.4996 30.2971 43.4996ZM36.664 43.4996C36.0057 43.4996 35.5657 43.0669 35.5657 42.4177C35.5657 41.7685 36.0057 41.3357 36.664 41.3357C37.3223 41.3357 37.7611 41.7685 37.7611 42.4177C37.7611 43.0669 37.3223 43.4996 36.664 43.4996ZM36.664 30.2988C36.664 30.2988 35.1268 29.2169 34.9074 28.5666C34.688 27.9185 35.3463 27.4846 35.7863 27.4846C36.2251 27.4846 36.664 27.9174 36.664 28.3502C36.664 27.9174 37.1028 27.4846 37.5417 27.4846C37.9817 27.4846 38.64 27.9174 38.4205 28.5666C38.4205 29.2158 36.664 30.2988 36.664 30.2988ZM43.4697 43.4996C42.8114 43.4996 42.3725 43.0669 42.3725 42.4177C42.3725 41.7685 42.8114 41.3357 43.4697 41.3357C44.128 41.3357 44.568 41.7685 44.568 42.4177C44.3485 43.0669 43.9086 43.4996 43.4697 43.4996ZM55.3257 44.5816C55.1062 45.8799 53.3497 46.7455 51.3737 46.5302C49.3977 46.3138 48.08 44.798 48.2994 43.4996C48.52 42.2013 50.2754 41.3357 52.2514 41.5521C54.008 41.7685 55.5451 43.068 55.3257 44.5816ZM60.5943 45.8799C60.3748 46.5302 59.7165 46.7466 59.2777 46.5302C58.6183 46.3138 58.3988 45.6646 58.6183 45.2307C58.8377 44.5827 59.4971 44.3652 59.936 44.5827C60.3748 44.798 60.8137 45.2307 60.5943 45.8799ZM66.7417 48.2613C66.0834 49.3432 64.7657 49.9924 64.1074 49.5596C63.448 49.1268 63.448 47.8285 64.3268 46.7466C64.9851 45.6635 66.3028 45.0144 66.9611 45.4482C67.6194 45.881 67.6194 47.1793 66.7417 48.2602V48.2613ZM89.7942 44.1488C88.696 44.1488 87.8182 45.0144 87.8182 46.0974C87.8182 47.1793 88.696 48.0449 89.7942 48.0449C90.8914 48.0449 91.7702 47.1793 91.7702 46.0974C91.9897 45.0144 90.8914 44.1488 89.7942 44.1488ZM170.806 44.1488C169.708 44.1488 168.831 45.0144 168.831 46.0974C168.831 47.1793 169.708 48.0449 170.806 48.0449C171.904 48.0449 172.782 47.1793 172.782 46.0974C172.782 45.0144 171.904 44.1488 170.806 44.1488ZM100.771 16.4477C99.4537 16.4477 99.2342 16.6641 99.2342 18.3952V29.4332C99.2342 30.948 99.4537 31.3807 100.771 31.3807V31.8135H92.8674V31.3807C94.4045 31.3807 94.6239 31.1644 94.6239 29.4332V17.9613L89.1348 31.596H88.696L82.3291 17.3122V27.2672C82.3291 30.2977 82.5485 30.9469 84.5245 31.1633V31.596H79.9142V31.1633C81.2319 30.9469 81.4514 30.2977 81.4514 27.6999V18.3941C81.4514 16.8794 81.2319 16.4466 79.9142 16.4466V16.0138H86.5005L90.6719 25.536L94.6239 16.0127H100.552V16.4466H100.771V16.4477ZM115.7 16.0149V16.4477C115.041 16.8805 114.163 17.5297 113.286 19.4772L111.09 23.5896V29.4332C111.09 30.948 111.31 31.3807 112.626 31.3807V31.8135H104.723V31.3807C106.04 31.3807 106.259 31.1644 106.259 29.4332V25.3208L102.088 17.746C101.649 16.8805 100.991 16.4477 100.771 16.4477V16.0149C101.649 16.0149 102.747 16.2313 103.845 16.2313C105.382 16.2313 107.358 16.2313 108.895 16.0149V16.4477C108.016 16.4477 107.138 16.4477 107.138 16.8805V17.3133L110.431 23.3733L111.529 21.4258C112.187 19.9099 112.626 18.828 112.626 18.1788C112.626 17.0969 111.968 16.6641 110.871 16.4477V16.0149H115.7ZM129.97 23.5896C134.582 23.806 136.337 25.7535 136.337 27.4846C136.337 30.5152 133.703 31.8124 129.531 31.8124H121.408V31.3807C122.726 31.3807 122.945 31.1644 122.945 29.4332V18.3952C122.945 16.8805 122.726 16.4477 121.408 16.4477V16.0149H128.873C133.044 16.0149 135.02 17.5307 135.02 19.4772C135.24 20.993 133.483 22.9405 129.97 23.5896ZM127.775 18.3952V23.3733H128.434C130.191 23.3733 130.63 21.6421 130.63 19.6935C130.63 17.5297 130.191 16.4477 129.092 16.4477C127.995 16.4477 127.775 16.8805 127.775 18.3952ZM131.507 27.2683C131.507 25.1044 130.41 23.806 127.995 23.806H127.775V29.4332C127.775 30.948 127.995 31.3807 129.312 31.3807C130.849 31.1644 131.507 29.8649 131.507 27.2683ZM150.388 31.8135H137.435V31.3807C138.753 31.3807 138.972 31.1644 138.972 29.4332V18.3952C138.972 16.8805 138.753 16.4477 137.435 16.4477V16.0149H149.95C149.95 17.5307 149.73 19.0444 149.73 19.6946V21.2083H149.511C148.851 17.5297 147.315 16.4477 145.339 16.4477H145.12C144.022 16.4477 143.802 16.6641 143.802 17.746V23.3733H144.022C145.778 23.3733 146.875 21.6421 147.095 20.3427H147.315V23.5896C147.315 24.2377 147.315 25.1044 147.535 26.8355H147.095C146.875 25.1044 145.559 23.806 144.022 23.806H143.802V29.6496C143.802 30.948 144.022 30.948 145.12 30.948H145.778C147.315 30.948 149.29 29.6485 149.95 25.7535H150.388V31.8135ZM161.804 16.6641C162.244 16.8805 162.464 16.8805 162.683 16.8805C162.903 16.8805 163.122 16.4477 163.122 15.7985H163.561C163.561 16.6641 163.342 17.9624 163.342 21.2083H162.903C162.683 18.828 161.366 16.2313 158.951 16.2313C157.633 16.2313 156.755 16.8805 156.755 18.3952C156.755 20.1263 157.852 20.7766 160.707 22.723C162.683 24.0224 164.44 25.3208 164.44 27.701C164.44 30.7316 161.585 32.0288 158.292 32.0288C156.316 32.0288 155.218 31.5971 154.34 31.1644C153.902 30.948 153.682 30.948 153.682 30.948C153.462 30.948 153.242 31.3807 153.242 32.0299H152.803V25.5371H153.242C153.462 28.5666 154.56 31.3807 157.414 31.3807C159.17 31.3807 160.048 30.5152 160.048 29.2169C160.048 27.2683 158.731 26.4027 156.755 25.1044C154.56 23.5885 152.803 22.5077 152.803 19.9099C152.803 17.0969 155.438 15.7985 158.292 15.7985C160.268 15.7985 161.146 16.2313 161.804 16.6641ZM180.466 20.3427V21.8585H180.027C178.929 17.746 177.172 16.4477 175.636 16.4477V29.2169C175.636 30.948 176.075 31.3807 178.051 31.3807V31.8135H168.61V31.3807C170.586 31.3807 171.026 31.1644 171.026 29.2169V16.4477C169.27 16.4477 167.732 17.746 166.635 21.8585H166.195V20.3427C166.195 19.4772 166.195 17.746 165.976 16.0149H180.686C180.466 17.746 180.466 19.4772 180.466 20.3427Z" fill="#E1B87C"/>
<path d="M101.43 42.6342C102.088 41.5522 103.406 40.9031 104.943 40.9031C106.259 40.9031 107.138 41.3359 107.577 41.7686C108.016 42.2014 108.235 43.067 108.235 44.5817V50.6417C108.235 51.94 108.455 52.1575 109.553 52.1575V52.5892H103.186V52.1564C103.845 52.1564 104.283 51.7236 104.283 50.6417V43.4997C104.283 42.6342 104.064 42.2014 103.186 42.2014C102.309 42.2014 101.649 42.8506 101.649 43.7172V50.6417C101.649 51.94 101.869 52.1575 102.747 52.1575V52.5892H96.3806V52.1564C97.2583 52.1564 97.6972 51.7236 97.6972 50.6417V38.09C97.6972 36.7906 97.4778 36.1414 96.3806 36.1414V35.7086H97.6972C99.2343 35.7086 100.552 35.7086 101.649 35.4923V42.6342H101.43ZM120.091 49.3433L120.53 49.5597C119.872 51.2908 118.554 53.2394 115.92 53.2394C113.066 53.2394 110.65 51.7236 110.65 47.1795C110.65 42.8517 113.286 41.1195 116.359 41.1195C118.993 41.1195 120.53 42.4178 120.53 46.0975H114.822V46.9631C114.822 49.9925 116.139 50.8581 117.457 50.8581C117.896 50.8581 118.993 50.6417 120.091 49.3422V49.3433ZM114.602 45.6636H117.238C117.238 43.4997 117.017 41.5522 116.139 41.5522C115.262 41.5522 114.822 42.6342 114.602 45.6636ZM126.897 50.8581C126.897 52.1564 127.336 52.3739 128.215 52.3739V52.8056H121.629V52.3728C122.506 52.3728 122.945 51.94 122.945 50.8581V38.3064C122.945 37.007 122.726 36.3578 121.629 36.3578V35.925H122.945C124.482 35.925 125.799 35.925 126.897 35.7086V50.8581ZM141.607 46.7467C141.607 51.7236 139.192 53.2383 136.337 53.2383C135.459 53.2383 134.801 53.022 134.142 52.8056V54.7542C134.142 56.2689 134.801 56.4853 136.118 56.4853V56.9181H128.873V56.4853C129.751 56.4853 130.191 56.0525 130.191 54.9694V43.9336C130.191 42.6353 129.97 41.9861 128.873 41.9861V41.5533H130.191C131.727 41.5533 133.045 41.5533 134.142 41.3369V42.8528C134.801 41.7697 136.118 41.1206 137.655 41.1206C140.07 41.1206 141.607 42.8517 141.607 46.7478V46.7467ZM137.435 47.1795C137.435 43.2834 136.777 42.2014 135.898 42.2014C135.021 42.2014 134.361 42.8506 134.361 43.7172V52.1564C134.582 52.3728 134.801 52.3728 135.24 52.3728C136.777 52.5892 137.435 50.8581 137.435 47.1795ZM152.584 49.3433L153.023 49.5597C152.365 51.2908 151.047 53.2394 148.413 53.2394C145.559 53.2394 143.144 51.7236 143.144 47.1795C143.144 42.8517 145.778 41.1195 148.851 41.1195C151.486 41.1195 153.023 42.4178 153.023 46.0975H147.315V46.9631C147.315 49.9925 148.632 50.8581 149.95 50.8581C150.608 50.8581 151.706 50.6417 152.584 49.3422V49.3433ZM147.315 45.6636H149.95C149.95 43.4997 149.73 41.5522 148.851 41.5522C147.974 41.5522 147.315 42.6342 147.315 45.6636ZM164.219 43.2833C164.219 44.5817 163.342 45.4472 162.243 45.4472C160.927 45.4472 160.269 44.7992 160.269 43.9325C160.269 42.8506 160.707 42.2014 161.366 41.7686C161.146 41.7686 160.927 41.7686 160.707 41.985C160.048 42.2014 159.39 43.067 159.39 43.9325V50.6417C159.39 52.1575 160.048 52.3728 161.366 52.3728V52.8056H154.121V52.3728C154.999 52.3728 155.438 51.94 155.438 50.8581V43.7172C155.438 42.4189 155.218 41.7697 154.121 41.7697V41.3369H155.438C156.975 41.3369 158.293 41.337 159.39 41.1206V42.6364C160.048 41.5533 160.927 40.9042 162.243 40.9042C163.781 41.1206 164.219 42.2025 164.219 43.2844V43.2833Z" fill="#1C448E"/>
</svg>
