<svg width="16" height="19" viewBox="0 0 16 19" fill="none" xmlns="http://www.w3.org/2000/svg">
<path d="M5.45312 10.375C5.66406 10.375 5.875 10.1992 5.875 9.95312V8.54688C5.875 8.33594 5.66406 8.125 5.45312 8.125H4.04688C3.80078 8.125 3.625 8.33594 3.625 8.54688V9.95312C3.625 10.1992 3.80078 10.375 4.04688 10.375H5.45312ZM9.25 9.95312V8.54688C9.25 8.33594 9.03906 8.125 8.82812 8.125H7.42188C7.17578 8.125 7 8.33594 7 8.54688V9.95312C7 10.1992 7.17578 10.375 7.42188 10.375H8.82812C9.03906 10.375 9.25 10.1992 9.25 9.95312ZM12.625 9.95312V8.54688C12.625 8.33594 12.4141 8.125 12.2031 8.125H10.7969C10.5508 8.125 10.375 8.33594 10.375 8.54688V9.95312C10.375 10.1992 10.5508 10.375 10.7969 10.375H12.2031C12.4141 10.375 12.625 10.1992 12.625 9.95312ZM9.25 13.3281V11.9219C9.25 11.7109 9.03906 11.5 8.82812 11.5H7.42188C7.17578 11.5 7 11.7109 7 11.9219V13.3281C7 13.5742 7.17578 13.75 7.42188 13.75H8.82812C9.03906 13.75 9.25 13.5742 9.25 13.3281ZM5.875 13.3281V11.9219C5.875 11.7109 5.66406 11.5 5.45312 11.5H4.04688C3.80078 11.5 3.625 11.7109 3.625 11.9219V13.3281C3.625 13.5742 3.80078 13.75 4.04688 13.75H5.45312C5.66406 13.75 5.875 13.5742 5.875 13.3281ZM12.625 13.3281V11.9219C12.625 11.7109 12.4141 11.5 12.2031 11.5H10.7969C10.5508 11.5 10.375 11.7109 10.375 11.9219V13.3281C10.375 13.5742 10.5508 13.75 10.7969 13.75H12.2031C12.4141 13.75 12.625 13.5742 12.625 13.3281ZM16 4.1875C16 3.27344 15.2266 2.5 14.3125 2.5H12.625V0.671875C12.625 0.460938 12.4141 0.25 12.2031 0.25H10.7969C10.5508 0.25 10.375 0.460938 10.375 0.671875V2.5H5.875V0.671875C5.875 0.460938 5.66406 0.25 5.45312 0.25H4.04688C3.80078 0.25 3.625 0.460938 3.625 0.671875V2.5H1.9375C0.988281 2.5 0.25 3.27344 0.25 4.1875V16.5625C0.25 17.5117 0.988281 18.25 1.9375 18.25H14.3125C15.2266 18.25 16 17.5117 16 16.5625V4.1875ZM14.3125 16.3516C14.3125 16.4922 14.207 16.5625 14.1016 16.5625H2.14844C2.00781 16.5625 1.9375 16.4922 1.9375 16.3516V5.875H14.3125V16.3516Z" fill="#858E9D"/>
</svg>
