<svg width="14" height="14" viewBox="0 0 14 14" fill="none" xmlns="http://www.w3.org/2000/svg">
<path d="M12.5 0H1.5C0.65625 0 0 0.6875 0 1.5V12.5C0 13.3438 0.65625 14 1.5 14H12.5C13.3125 14 14 13.3438 14 12.5V1.5C14 0.6875 13.3125 0 12.5 0ZM11.5 7.875C11.5 8.09375 11.3125 8.25 11.125 8.25H8.25V11.125C8.25 11.3438 8.0625 11.5 7.875 11.5H6.125C5.90625 11.5 5.75 11.3438 5.75 11.125V8.25H2.875C2.65625 8.25 2.5 8.09375 2.5 7.875V6.125C2.5 5.9375 2.65625 5.75 2.875 5.75H5.75V2.875C5.75 2.6875 5.90625 2.5 6.125 2.5H7.875C8.0625 2.5 8.25 2.6875 8.25 2.875V5.75H11.125C11.3125 5.75 11.5 5.9375 11.5 6.125V7.875Z" fill="#1F468F"/>
</svg>
