<svg width="60" height="60" viewBox="0 0 60 60" fill="none" xmlns="http://www.w3.org/2000/svg">
<path d="M17 53H47C48.1046 53 49 52.1046 49 51V10M17 53V45M17 53V59L13.4142 55.4142C12.6332 54.6332 11.3668 54.6332 10.5858 55.4142L7 59V45M49 10L40 1M49 10H42C40.8954 10 40 9.10457 40 8V1M40 1H14C12.8954 1 12 1.89543 12 3V33M18 8H28M18 12H25M18 18H43M18 22H43M18 26H43M18 30H43M23 34H40M33 38H43M36 42H43" stroke="#1F468F" stroke-width="2" stroke-linecap="round" stroke-linejoin="round"/>
<circle cx="12" cy="40" r="7" stroke="#1F468F" stroke-width="2"/>
<circle cx="12" cy="40" r="3" stroke="#1F468F" stroke-width="2"/>
</svg>
