<svg width="16" height="26" viewBox="0 0 16 26" fill="none" xmlns="http://www.w3.org/2000/svg">
<circle cx="8" cy="4" r="3" fill="#E1B87C" stroke="#E1B87C" stroke-width="2"/>
<path d="M5 11H11V16C11 16.5523 10.5523 17 10 17H6C5.44772 17 5 16.5523 5 16V11Z" fill="#E1B87C"/>
<path d="M1 15L5 11M5 11H11M5 11V16C5 16.5523 5.44772 17 6 17H10C10.5523 17 11 16.5523 11 16V11M11 11L15 15M5 25L3.09029 23.0903M11 25L12.9097 23.0903M12.9097 23.0903L13 23C13.5523 22.4477 13.5523 21.5523 13 21L12.5113 20.5113C12.2289 20.2289 11.7711 20.2289 11.4887 20.5113V20.5113C11.2153 20.7847 11.2054 21.2248 11.4662 21.5103L12.9097 23.0903ZM3.09029 23.0903L3 23C2.44772 22.4477 2.44771 21.5523 3 21L3.48872 20.5113C3.77109 20.2289 4.22891 20.2289 4.51128 20.5113V20.5113C4.78469 20.7847 4.79462 21.2248 4.53382 21.5103L3.09029 23.0903Z" stroke="#E1B87C" stroke-width="2" stroke-linecap="round"/>
</svg>
