<svg width="60" height="60" viewBox="0 0 60 60" fill="none" xmlns="http://www.w3.org/2000/svg">
<path d="M10 31V23.5C10 19.3579 13.3579 16 17.5 16V16C21.6421 16 25 19.3579 25 23.5V28.6393C25 30.1918 25.3615 31.7229 26.0557 33.1115L27 35" stroke="#1B3667" stroke-width="2" stroke-linecap="round" stroke-linejoin="round"/>
<path d="M14 33L9 47H15M14 33H21M14 33V23.5C14 21.567 15.567 20 17.5 20V20C19.433 20 21 21.567 21 23.5V33M21 33L26 47H20M15 47V59M15 47H20M20 47V59" stroke="#1B3667" stroke-width="2" stroke-linecap="round" stroke-linejoin="round"/>
<circle cx="17.5" cy="7.5" r="6.5" stroke="#1B3667" stroke-width="2"/>
<path d="M11.5 9.99907C8.57829 9.8584 7.78908 10.8623 6.5 14C9.90037 14.8943 11.0226 14.7756 13 12.4991" stroke="#1B3667" stroke-width="2" stroke-linecap="round" stroke-linejoin="round"/>
<path d="M13 12C17.4775 8.84947 18.9732 6.62782 20 2" stroke="#1B3667" stroke-width="2"/>
<path d="M32 51C32 55.4183 35.5817 59 40 59C42.6199 59 44.9456 57.7407 46.4048 55.7944L46.5 48H39V43.5815H37C35.2962 44.2712 33.884 45.5309 33 47.124C32.3628 48.2723 32 49.5938 32 51Z" fill="#E1B87C"/>
<path d="M33 47.124C32.3628 48.2723 32 49.5938 32 51C32 55.4183 35.5817 59 40 59C42.6199 59 44.9456 57.7407 46.4048 55.7944L46.5 48H39V43.5815H37C35.2962 44.2712 33.884 45.5309 33 47.124ZM33 47.124V38H30" stroke="#1B3667" stroke-width="2" stroke-linecap="round" stroke-linejoin="round"/>
<path d="M42.8673 47H46.5585C47.4193 47 48.1836 47.5509 48.4558 48.3675L49.7721 52.3162C49.9082 52.7246 50.2903 53 50.7208 53H52C53.1046 53 54 53.8954 54 55C54 56.1046 53.1046 57 52 57H47.7208C47.2903 57 46.9082 56.7246 46.7721 56.3162L45.2279 51.6838C45.0918 51.2754 44.7097 51 44.2792 51H38.895C38.3855 51 37.9574 50.6169 37.9012 50.1104L36.2468 35.2209C36.1151 34.0361 37.0599 33 38.2519 33C39.2472 33 40.1046 33.7319 40.2453 34.7172L40.7143 38H45C46.1046 38 47 38.8954 47 40C47 41.1046 46.1046 42 45 42H41.2857L41.8773 46.1414C41.9477 46.6341 42.3696 47 42.8673 47Z" fill="#E1B87C"/>
<path d="M40.7143 38L40.2453 34.7172C40.1046 33.7319 39.2472 33 38.2519 33V33C37.0599 33 36.1151 34.0361 36.2468 35.2209L37.9012 50.1104C37.9574 50.6169 38.3855 51 38.895 51H44.2792C44.7097 51 45.0918 51.2754 45.2279 51.6838L46.7721 56.3162C46.9082 56.7246 47.2903 57 47.7208 57H52C53.1046 57 54 56.1046 54 55V55C54 53.8954 53.1046 53 52 53H50.7208C50.2903 53 49.9082 52.7246 49.7721 52.3162L48.4558 48.3675C48.1836 47.5509 47.4193 47 46.5585 47H42.8673C42.3696 47 41.9477 46.6341 41.8773 46.1414L41.2857 42M40.7143 38H45C46.1046 38 47 38.8954 47 40V40C47 41.1046 46.1046 42 45 42H41.2857M40.7143 38L41.2857 42" stroke="#1B3667" stroke-width="2" stroke-linecap="round" stroke-linejoin="round"/>
<circle cx="37" cy="27" r="4" fill="#E1B87C" stroke="#1B3667" stroke-width="2"/>
</svg>
