<svg width="181" height="58" viewBox="0 0 181 58" fill="none" xmlns="http://www.w3.org/2000/svg">
<path d="M6.80589 22.7241C7.46419 22.7241 7.90417 22.2913 7.90417 21.6421C7.90417 20.9929 7.46419 20.5602 6.80589 20.5602C6.1476 20.5602 5.70874 20.9918 5.70874 21.6421C5.70874 22.2902 6.1476 22.7241 6.80589 22.7241ZM9.44018 20.5602C10.0996 20.5602 10.7579 19.9099 10.7579 19.2607C10.7579 18.6127 10.0996 18.1788 9.44018 18.1788C8.78189 18.1788 8.1236 18.828 8.1236 19.4771C8.1236 20.1263 8.78189 20.5602 9.44018 20.5602ZM12.7339 18.1788C13.3922 18.1788 14.0505 17.5307 14.0505 16.8805C14.0505 16.2313 13.3922 15.5821 12.7339 15.5821C12.0756 15.5821 11.4162 16.2313 11.4162 16.8805C11.4162 17.5296 12.0756 18.1788 12.7339 18.1788ZM19.9785 14.2838C20.8573 14.2838 21.5156 13.6346 21.5156 12.768C21.5156 11.9024 20.8573 11.2532 19.9785 11.2532C19.1007 11.2532 18.4413 11.9024 18.4413 12.7691C18.4413 13.6346 19.1007 14.2838 19.9785 14.2838ZM16.2459 16.2313C17.0956 16.2313 17.783 15.5536 17.783 14.7155C17.783 13.8807 17.0956 13.2018 16.2459 13.2018C15.3973 13.2018 14.7099 13.8796 14.7099 14.7166C14.7099 15.5525 15.3973 16.2313 16.2459 16.2313ZM24.5887 12.5527C25.4676 12.5527 26.3453 11.686 26.3453 10.8205C26.3453 9.95491 25.4676 9.08935 24.5887 9.08935C23.711 9.08935 22.8333 9.95491 22.8333 10.8205C22.8333 11.9024 23.711 12.5516 24.5887 12.5516V12.5527ZM29.199 11.6871C30.2973 11.6871 31.175 10.8205 31.175 9.73852C31.175 8.65657 30.2973 7.79102 29.199 7.79102C28.1019 7.79102 27.2242 8.65657 27.2242 9.73852C27.2242 10.8205 28.3213 11.686 29.199 11.686V11.6871Z" fill="#1C448E"/>
<path d="M8.34277 23.5897C14.9291 18.3953 25.9062 15.1494 30.9553 14.2839C32.4925 16.2314 34.0296 19.6936 34.249 20.9919C33.8102 14.2839 32.273 12.1189 32.273 12.1189C26.3451 13.4183 16.0262 16.8805 8.34277 23.5897ZM35.5656 6.70916L33.5907 8.44027L32.9313 11.6861L36.8833 9.73861L40.8353 11.6861L40.3965 8.87415L37.9816 6.49277L40.177 7.35833L43.2502 4.32888L38.8593 3.67861L36.8833 0L35.1268 3.46222L36.0056 4.76166L36.4445 5.40973L36.6639 5.62721V5.8436L36.4445 5.62721L36.225 5.41082L35.5656 4.97805L34.4685 4.11249L34.249 3.895L30.5165 4.32888L33.3713 7.14084L35.5656 6.70916Z" fill="#E1B87C"/>
<path d="M66.9611 22.7241C67.6194 22.7241 68.0594 22.2913 68.0594 21.6421C68.0594 20.9929 67.6194 20.5602 66.9623 20.5602C66.3029 20.5602 65.8651 20.9918 65.8651 21.6421C65.8651 22.2902 66.3029 22.7241 66.9623 22.7241H66.9611ZM64.3269 20.7766C65.0546 20.7766 65.6434 20.1944 65.6434 19.4771C65.6434 18.7599 65.0546 18.1788 64.3269 18.1788C63.5991 18.1788 63.0091 18.761 63.0091 19.4771C63.0087 19.6473 63.0424 19.816 63.1084 19.9734C63.1744 20.1308 63.2713 20.2739 63.3937 20.3946C63.5161 20.5153 63.6614 20.6111 63.8216 20.6766C63.9817 20.7422 64.1534 20.7761 64.3269 20.7766ZM61.0332 18.1788C61.6926 18.1788 62.3509 17.5307 62.3509 16.8805C62.3509 16.2313 61.6926 15.5821 61.0332 15.5821C60.3749 15.5821 59.7166 16.2313 59.7166 16.8805C59.7166 17.5296 60.3749 18.1788 61.0332 18.1788ZM53.7886 14.2838C54.6663 14.2838 55.3257 13.6346 55.3257 12.768C55.3257 11.9024 54.6663 11.2532 53.7886 11.2532C52.9109 11.2532 52.2514 11.9024 52.2514 12.7691C52.032 13.6346 52.9109 14.2838 53.7886 14.2838ZM57.5211 16.2313C58.3989 16.2313 59.0572 15.5821 59.0572 14.7155C59.0572 13.851 58.3989 13.2018 57.5211 13.2018C56.6423 13.2018 55.984 13.8499 55.984 14.7166C55.984 15.5821 56.6423 16.2313 57.5211 16.2313ZM49.1783 12.5527C50.056 12.5527 50.9349 11.686 50.9349 10.8205C50.9349 9.95491 50.056 9.08935 49.1783 9.08935C48.2994 9.08935 47.4217 9.95491 47.4217 10.8205C47.4217 11.9024 48.2994 12.5516 49.1783 12.5516V12.5527ZM42.592 9.73852C42.592 10.8205 43.4697 11.686 44.568 11.686C45.4457 11.686 46.3235 10.8205 46.3235 9.73852C46.3235 8.65657 45.4457 7.79102 44.3486 7.79102C43.4697 7.79102 42.5909 8.65657 42.5909 9.73852H42.592ZM36.8834 16.2313C36.2252 16.2313 35.5657 16.8805 35.5657 17.5296C35.5657 18.1788 36.2263 18.828 36.8834 18.828C37.5417 18.828 38.2012 18.1799 38.2012 17.5296C38.2012 16.8805 37.5417 16.2313 36.8834 16.2313ZM36.8834 12.3352C36.0057 12.3352 35.3463 12.9855 35.3463 13.851C35.3463 14.7166 36.0057 15.3657 36.8834 15.3657C37.7623 15.3657 38.4206 14.7166 38.4206 13.8499C38.4206 13.2018 37.7623 12.3352 36.8834 12.3352Z" fill="#1C448E"/>
<path d="M39.5178 21.2086V21.6425C39.7373 20.343 41.2744 16.2316 42.8115 14.283C47.8607 15.1497 58.8378 18.3955 65.4241 23.59C57.7407 16.8808 47.4218 13.4186 41.7132 12.1191C41.7132 12.1191 39.9578 14.283 39.5178 21.2086Z" fill="#E1B87C"/>
<path d="M30.9554 56.2688C27.8822 56.0524 25.0285 55.836 22.1737 55.1869C19.1005 54.7541 16.2457 54.1049 13.392 53.023C12.7337 53.4547 12.2948 53.671 12.2948 53.8885C12.2948 55.1869 23.0525 57.9999 36.8834 57.9999C50.7153 57.9999 61.4731 55.1869 61.4731 53.8885C61.4731 52.5891 50.7142 49.3433 36.8834 49.3433C32.0536 49.3433 27.4434 49.776 23.7108 50.2088C26.2892 51.0607 28.9321 51.7119 31.6148 52.1563C27.4434 52.1563 23.4914 51.9399 19.3199 51.0744C18.2217 51.2908 17.3439 51.5072 16.4651 51.7235C18.4422 52.3727 20.1977 53.0219 22.1737 53.4547C25.0285 54.1049 27.8822 54.5377 30.7359 54.9705C33.5908 55.1869 36.6639 55.4032 39.5177 55.4032C42.3725 55.4032 45.4456 55.1869 48.2994 54.9705C45.4445 55.4032 42.3725 55.836 39.5177 55.836C36.8834 56.4841 33.8102 56.4841 30.9554 56.2688Z" fill="#1C448E"/>
<path d="M69.8148 30.0822C69.8148 30.2986 70.0354 30.515 70.0354 30.9478C70.2548 32.2461 70.2548 33.5444 69.8148 34.6275C69.8148 33.328 69.5954 32.2461 68.9371 31.3805C68.5175 30.5339 67.8222 29.8486 66.9611 29.433C66.3028 29.433 65.424 29.8658 65.2045 30.515C64.5462 32.4625 63.0091 37.8733 62.3508 39.1706C62.7897 39.388 65.2045 39.1706 66.5222 38.3061C66.0521 38.9858 65.4563 39.5729 64.7657 40.0372C62.7897 41.3355 60.3748 41.5519 58.1794 40.9028C54.6663 40.0372 54.4468 35.0592 54.4468 33.1117L58.1794 35.4919L57.96 32.2461L56.4228 29.433L57.7405 29.8658L62.1314 26.6189L57.7405 24.8878L55.5451 25.7533L56.4228 24.2375L54.6663 19.477L52.2514 23.1567L52.9108 27.7008L50.9348 24.0211L46.104 24.6714L49.1782 28.1336L52.9108 28.35L49.8365 29.2167L48.52 34.41L50.056 33.7608C51.3737 32.6789 52.2514 31.1642 52.9108 29.433C52.9108 30.515 52.6903 31.5969 52.2514 32.8953C51.5931 35.0592 50.056 37.6558 48.08 38.5225C45.8846 39.388 43.0308 39.1706 41.0548 37.6569C39.7371 36.5739 38.8594 34.8428 38.64 33.1117C39.2983 34.8428 43.0308 37.6558 43.4697 37.0067V25.3206C43.4697 24.0222 42.1531 23.1567 41.0548 23.3731C40.3965 23.5894 39.7371 24.2386 39.0788 24.2386C39.0788 23.1567 39.2983 20.9917 37.1028 20.9917C35.3463 20.9917 35.1268 22.7239 35.1268 23.8058C35.7863 24.6714 36.0057 25.3206 36.2251 26.1861C35.5657 25.1042 34.688 24.2386 33.8103 23.8058C33.3703 23.5894 32.9314 23.3731 32.4926 23.3731C31.6148 23.3731 30.736 24.2386 30.736 25.3206V37.0078C31.3954 37.8733 34.9074 33.9772 35.5657 32.6789C35.3463 34.6264 34.688 36.3586 33.1508 37.4405C31.1749 38.9553 28.3211 39.1717 26.1257 38.3061C24.1497 37.4405 22.6126 34.8428 21.9543 32.6789L25.9063 34.1947L24.808 29.8658L23.272 28.1336L24.5886 28.35L28.1017 24.2386L23.272 23.5894L21.7348 24.6714L22.1737 23.1556L19.1006 19.477L17.344 23.3731L18.8811 27.7008L16.0263 24.6714L11.1966 26.6189L14.9291 29.2156L18.8811 28.5675L15.5874 30.2986L15.1486 35.4919L17.344 33.9772C18.2217 32.6789 18.6617 31.1642 19.1006 29.6494C19.32 31.3805 19.32 33.1117 18.8811 35.0592C18.6617 37.2231 17.7829 40.2536 15.1486 41.1192C12.9531 41.7683 10.5383 41.5519 8.56228 40.2536C7.87166 39.7893 7.27585 39.2021 6.80571 38.5225C8.34285 38.9553 10.7577 39.1706 11.1966 38.9553C10.7577 37.6558 9.00114 32.0297 8.34285 30.2986C8.12342 29.6494 7.68344 29.2167 7.02515 29.2167C6.2783 29.7064 5.6732 30.3773 5.26858 31.1642C4.61029 32.0297 4.39086 33.3281 4.39086 34.41C3.95199 33.3281 3.95199 32.0297 4.17142 30.7303V30.515C3.51313 29.6494 1.53714 28.35 0 28.9981C0 28.1325 5.48801 43.0656 4.39086 48.26C4.39086 48.26 4.39086 48.4764 4.39086 48.26C4.17142 47.8272 8.34285 51.9397 9.87887 53.2369C14.9291 49.7747 25.6868 48.0436 36.664 48.0436C47.6411 48.0436 58.3988 49.7747 63.448 53.2369C64.9851 51.9386 68.9371 47.8272 68.9371 48.26C67.84 43.0656 73.328 28.1325 73.328 28.9992C72.2308 28.5653 70.4742 29.2156 69.8148 30.0811V30.0822ZM9.44 49.5594C8.78171 49.9922 7.68344 49.343 6.80571 48.2611C6.14742 47.1791 6.14742 45.8808 6.80571 45.448C7.46401 45.0142 8.56228 45.6644 9.44 46.7464C10.0994 48.0447 10.3188 49.1266 9.44 49.5583V49.5594ZM15.1486 46.3136C14.4903 46.53 14.0503 46.3136 13.8309 45.6633C13.6114 45.0153 13.8309 44.5814 14.4903 44.365C15.1486 44.1486 15.5874 44.365 15.8069 45.0142C16.0263 45.6633 15.8069 46.3136 15.1486 46.3136ZM22.3931 46.3136C20.4171 46.53 18.6617 45.6633 18.4411 44.365C18.2217 43.0667 19.5394 41.5519 21.5154 41.3355C23.4914 41.1192 25.248 41.9847 25.4674 43.283C25.9063 44.7989 24.3691 46.0972 22.3931 46.3136ZM30.2971 43.4994C29.6388 43.4994 29.2 43.0667 29.2 42.4175C29.2 41.7683 29.6388 41.3355 30.2971 41.3355C30.9554 41.3355 31.3954 41.7683 31.3954 42.4175C31.3954 43.0667 30.9554 43.4994 30.2971 43.4994ZM36.664 43.4994C36.0057 43.4994 35.5657 43.0667 35.5657 42.4175C35.5657 41.7683 36.0057 41.3355 36.664 41.3355C37.3223 41.3355 37.7611 41.7683 37.7611 42.4175C37.7611 43.0667 37.3223 43.4994 36.664 43.4994ZM36.664 30.2986C36.664 30.2986 35.1268 29.2167 34.9074 28.5664C34.688 27.9183 35.3463 27.4844 35.7863 27.4844C36.2251 27.4844 36.664 27.9172 36.664 28.35C36.664 27.9172 37.1028 27.4844 37.5417 27.4844C37.9817 27.4844 38.64 27.9172 38.4205 28.5664C38.4205 29.2156 36.664 30.2986 36.664 30.2986ZM43.4697 43.4994C42.8114 43.4994 42.3725 43.0667 42.3725 42.4175C42.3725 41.7683 42.8114 41.3355 43.4697 41.3355C44.128 41.3355 44.568 41.7683 44.568 42.4175C44.3485 43.0667 43.9086 43.4994 43.4697 43.4994ZM55.3257 44.5814C55.1062 45.8797 53.3497 46.7453 51.3737 46.53C49.3977 46.3136 48.08 44.7978 48.2994 43.4994C48.52 42.2011 50.2754 41.3355 52.2514 41.5519C54.008 41.7683 55.5451 43.0678 55.3257 44.5814ZM60.5943 45.8797C60.3748 46.53 59.7165 46.7464 59.2777 46.53C58.6183 46.3136 58.3988 45.6644 58.6183 45.2305C58.8377 44.5825 59.4971 44.365 59.936 44.5825C60.3748 44.7978 60.8137 45.2305 60.5943 45.8797ZM66.7417 48.2611C66.0834 49.343 64.7657 49.9922 64.1074 49.5594C63.448 49.1266 63.448 47.8283 64.3268 46.7464C64.9851 45.6633 66.3028 45.0142 66.9611 45.448C67.6194 45.8808 67.6194 47.1791 66.7417 48.26V48.2611ZM89.7942 44.1486C88.696 44.1486 87.8182 45.0142 87.8182 46.0972C87.8182 47.1791 88.696 48.0447 89.7942 48.0447C90.8914 48.0447 91.7702 47.1791 91.7702 46.0972C91.9897 45.0142 90.8914 44.1486 89.7942 44.1486ZM170.806 44.1486C169.708 44.1486 168.831 45.0142 168.831 46.0972C168.831 47.1791 169.708 48.0447 170.806 48.0447C171.904 48.0447 172.782 47.1791 172.782 46.0972C172.782 45.0142 171.904 44.1486 170.806 44.1486ZM100.771 16.4475C99.4537 16.4475 99.2342 16.6639 99.2342 18.395V29.433C99.2342 30.9478 99.4537 31.3805 100.771 31.3805V31.8133H92.8674V31.3805C94.4045 31.3805 94.6239 31.1642 94.6239 29.433V17.9611L89.1348 31.5958H88.696L82.3291 17.312V27.267C82.3291 30.2975 82.5485 30.9467 84.5245 31.1631V31.5958H79.9142V31.1631C81.2319 30.9467 81.4514 30.2975 81.4514 27.6997V18.3939C81.4514 16.8792 81.2319 16.4464 79.9142 16.4464V16.0136H86.5005L90.6719 25.5358L94.6239 16.0125H100.552V16.4464H100.771V16.4475ZM115.7 16.0147V16.4475C115.041 16.8803 114.163 17.5295 113.286 19.477L111.09 23.5894V29.433C111.09 30.9478 111.31 31.3805 112.626 31.3805V31.8133H104.723V31.3805C106.04 31.3805 106.259 31.1642 106.259 29.433V25.3206L102.088 17.7458C101.649 16.8803 100.991 16.4475 100.771 16.4475V16.0147C101.649 16.0147 102.747 16.2311 103.845 16.2311C105.382 16.2311 107.358 16.2311 108.895 16.0147V16.4475C108.016 16.4475 107.138 16.4475 107.138 16.8803V17.3131L110.431 23.3731L111.529 21.4256C112.187 19.9097 112.626 18.8278 112.626 18.1786C112.626 17.0967 111.968 16.6639 110.871 16.4475V16.0147H115.7ZM129.97 23.5894C134.582 23.8058 136.337 25.7533 136.337 27.4844C136.337 30.515 133.703 31.8122 129.531 31.8122H121.408V31.3805C122.726 31.3805 122.945 31.1642 122.945 29.433V18.395C122.945 16.8803 122.726 16.4475 121.408 16.4475V16.0147H128.873C133.044 16.0147 135.02 17.5306 135.02 19.477C135.24 20.9928 133.483 22.9403 129.97 23.5894ZM127.775 18.395V23.3731H128.434C130.191 23.3731 130.63 21.6419 130.63 19.6933C130.63 17.5295 130.191 16.4475 129.092 16.4475C127.995 16.4475 127.775 16.8803 127.775 18.395ZM131.507 27.2681C131.507 25.1042 130.41 23.8058 127.995 23.8058H127.775V29.433C127.775 30.9478 127.995 31.3805 129.312 31.3805C130.849 31.1642 131.507 29.8647 131.507 27.2681ZM150.388 31.8133H137.435V31.3805C138.753 31.3805 138.972 31.1642 138.972 29.433V18.395C138.972 16.8803 138.753 16.4475 137.435 16.4475V16.0147H149.95C149.95 17.5306 149.73 19.0442 149.73 19.6944V21.2081H149.511C148.851 17.5295 147.315 16.4475 145.339 16.4475H145.12C144.022 16.4475 143.802 16.6639 143.802 17.7458V23.3731H144.022C145.778 23.3731 146.875 21.6419 147.095 20.3425H147.315V23.5894C147.315 24.2375 147.315 25.1042 147.535 26.8353H147.095C146.875 25.1042 145.559 23.8058 144.022 23.8058H143.802V29.6494C143.802 30.9478 144.022 30.9478 145.12 30.9478H145.778C147.315 30.9478 149.29 29.6483 149.95 25.7533H150.388V31.8133ZM161.804 16.6639C162.244 16.8803 162.464 16.8803 162.683 16.8803C162.903 16.8803 163.122 16.4475 163.122 15.7983H163.561C163.561 16.6639 163.342 17.9622 163.342 21.2081H162.903C162.683 18.8278 161.366 16.2311 158.951 16.2311C157.633 16.2311 156.755 16.8803 156.755 18.395C156.755 20.1261 157.852 20.7764 160.707 22.7228C162.683 24.0222 164.44 25.3206 164.44 27.7008C164.44 30.7314 161.585 32.0286 158.292 32.0286C156.316 32.0286 155.218 31.5969 154.34 31.1642C153.902 30.9478 153.682 30.9478 153.682 30.9478C153.462 30.9478 153.242 31.3805 153.242 32.0297H152.803V25.5369H153.242C153.462 28.5664 154.56 31.3805 157.414 31.3805C159.17 31.3805 160.048 30.515 160.048 29.2167C160.048 27.2681 158.731 26.4025 156.755 25.1042C154.56 23.5883 152.803 22.5075 152.803 19.9097C152.803 17.0967 155.438 15.7983 158.292 15.7983C160.268 15.7983 161.146 16.2311 161.804 16.6639ZM180.466 20.3425V21.8583H180.027C178.929 17.7458 177.172 16.4475 175.636 16.4475V29.2167C175.636 30.9478 176.075 31.3805 178.051 31.3805V31.8133H168.61V31.3805C170.586 31.3805 171.026 31.1642 171.026 29.2167V16.4475C169.27 16.4475 167.732 17.7458 166.635 21.8583H166.195V20.3425C166.195 19.477 166.195 17.7458 165.976 16.0147H180.686C180.466 17.7458 180.466 19.477 180.466 20.3425Z" fill="#E1B87C"/>
<path d="M101.43 42.6341C102.088 41.5522 103.406 40.903 104.943 40.903C106.259 40.903 107.138 41.3358 107.577 41.7686C108.016 42.2013 108.235 43.0669 108.235 44.5816V50.6416C108.235 51.9399 108.455 52.1574 109.553 52.1574V52.5891H103.186V52.1563C103.845 52.1563 104.283 51.7236 104.283 50.6416V43.4997C104.283 42.6341 104.064 42.2013 103.186 42.2013C102.309 42.2013 101.649 42.8505 101.649 43.7172V50.6416C101.649 51.9399 101.869 52.1574 102.747 52.1574V52.5891H96.3806V52.1563C97.2583 52.1563 97.6972 51.7236 97.6972 50.6416V38.09C97.6972 36.7905 97.4778 36.1414 96.3806 36.1414V35.7086H97.6972C99.2343 35.7086 100.552 35.7086 101.649 35.4922V42.6341H101.43ZM120.091 49.3433L120.53 49.5597C119.872 51.2908 118.554 53.2394 115.92 53.2394C113.066 53.2394 110.65 51.7236 110.65 47.1794C110.65 42.8516 113.286 41.1194 116.359 41.1194C118.993 41.1194 120.53 42.4177 120.53 46.0974H114.822V46.963C114.822 49.9924 116.139 50.858 117.457 50.858C117.896 50.858 118.993 50.6416 120.091 49.3422V49.3433ZM114.602 45.6636H117.238C117.238 43.4997 117.017 41.5522 116.139 41.5522C115.262 41.5522 114.822 42.6341 114.602 45.6636ZM126.897 50.858C126.897 52.1563 127.336 52.3738 128.215 52.3738V52.8055H121.629V52.3727C122.506 52.3727 122.945 51.9399 122.945 50.858V38.3063C122.945 37.0069 122.726 36.3577 121.629 36.3577V35.925H122.945C124.482 35.925 125.799 35.925 126.897 35.7086V50.858ZM141.607 46.7466C141.607 51.7236 139.192 53.2383 136.337 53.2383C135.459 53.2383 134.801 53.0219 134.142 52.8055V54.7541C134.142 56.2688 134.801 56.4852 136.118 56.4852V56.918H128.873V56.4852C129.751 56.4852 130.191 56.0524 130.191 54.9694V43.9336C130.191 42.6352 129.97 41.9861 128.873 41.9861V41.5533H130.191C131.727 41.5533 133.045 41.5533 134.142 41.3369V42.8527C134.801 41.7697 136.118 41.1205 137.655 41.1205C140.07 41.1205 141.607 42.8516 141.607 46.7477V46.7466ZM137.435 47.1794C137.435 43.2833 136.777 42.2013 135.898 42.2013C135.021 42.2013 134.361 42.8505 134.361 43.7172V52.1563C134.582 52.3727 134.801 52.3727 135.24 52.3727C136.777 52.5891 137.435 50.858 137.435 47.1794ZM152.584 49.3433L153.023 49.5597C152.365 51.2908 151.047 53.2394 148.413 53.2394C145.559 53.2394 143.144 51.7236 143.144 47.1794C143.144 42.8516 145.778 41.1194 148.851 41.1194C151.486 41.1194 153.023 42.4177 153.023 46.0974H147.315V46.963C147.315 49.9924 148.632 50.858 149.95 50.858C150.608 50.858 151.706 50.6416 152.584 49.3422V49.3433ZM147.315 45.6636H149.95C149.95 43.4997 149.73 41.5522 148.851 41.5522C147.974 41.5522 147.315 42.6341 147.315 45.6636ZM164.219 43.2833C164.219 44.5816 163.342 45.4472 162.243 45.4472C160.927 45.4472 160.269 44.7991 160.269 43.9325C160.269 42.8505 160.707 42.2013 161.366 41.7686C161.146 41.7686 160.927 41.7686 160.707 41.985C160.048 42.2013 159.39 43.0669 159.39 43.9325V50.6416C159.39 52.1574 160.048 52.3727 161.366 52.3727V52.8055H154.121V52.3727C154.999 52.3727 155.438 51.9399 155.438 50.858V43.7172C155.438 42.4188 155.218 41.7697 154.121 41.7697V41.3369H155.438C156.975 41.3369 158.293 41.3369 159.39 41.1205V42.6363C160.048 41.5533 160.927 40.9041 162.243 40.9041C163.781 41.1205 164.219 42.2024 164.219 43.2844V43.2833Z" fill="#1C448E"/>
</svg>
