<svg width="32" height="32" viewBox="0 0 32 32" fill="none" xmlns="http://www.w3.org/2000/svg">
<rect width="32" height="32" rx="16" fill="#00E16C"/>
<path d="M21.5195 9.66016C22.2578 10.4336 22.8203 11.2773 23.2422 12.2266C23.6641 13.1758 23.875 14.1602 23.875 15.1797C23.875 16.5859 23.4883 17.8867 22.7852 19.082C22.082 20.2773 21.0977 21.2266 19.9023 21.9297C18.707 22.6328 17.4062 22.9844 16 22.9844C14.6641 22.9844 13.3984 22.668 12.2734 22.0352L8.125 23.125L9.25 19.082C8.54688 17.8867 8.19531 16.5859 8.19531 15.1797C8.19531 13.7734 8.54688 12.4727 9.25 11.2773C9.95312 10.082 10.9023 9.13281 12.0977 8.42969C13.293 7.72656 14.5938 7.375 16 7.375C17.0195 7.375 18.0039 7.58594 18.9531 7.97266C19.9023 8.39453 20.7461 8.95703 21.5195 9.66016ZM16 21.6836C17.1602 21.6836 18.25 21.4023 19.2695 20.8047C20.2539 20.2422 21.0625 19.4336 21.6602 18.4492C22.2578 17.4648 22.5742 16.375 22.5742 15.1797C22.5742 14.3359 22.3984 13.5273 22.0469 12.7188C21.6953 11.9453 21.2031 11.2422 20.5703 10.6094C19.9375 9.97656 19.2344 9.51953 18.4609 9.16797C17.6875 8.85156 16.8438 8.67578 16 8.67578C14.8047 8.67578 13.7148 8.99219 12.7305 9.55469C11.7461 10.1523 10.9375 10.9609 10.375 11.9453C9.77734 12.9297 9.49609 14.0195 9.49609 15.1797C9.49609 16.4453 9.8125 17.5703 10.5156 18.625L10.6562 18.8711L9.98828 21.2617L12.4492 20.6289L12.6953 20.7695C13.6797 21.4023 14.8047 21.6836 16 21.6836ZM19.5508 16.7969L19.6562 16.8672C19.7969 16.9375 19.9023 17.0078 19.9375 17.043C19.9375 17.1133 19.9375 17.2188 19.9375 17.3945C19.9375 17.6055 19.8672 17.7812 19.7969 17.9922C19.7266 18.2031 19.5156 18.3789 19.2344 18.5898C18.9531 18.8008 18.707 18.9062 18.4961 18.9062C18.1445 18.9766 17.8281 18.9766 17.5469 18.9062C17.1953 18.8359 16.7031 18.6953 16.1406 18.4141C14.9453 17.9219 13.8555 16.9375 12.8711 15.5312L12.8008 15.4609C12.2734 14.7578 12.0273 14.0898 12.0273 13.457C12.0273 12.8594 12.2383 12.332 12.6602 11.875L12.6953 11.8398C12.8359 11.6992 13.0117 11.5938 13.2227 11.5938H13.6445C13.7148 11.5938 13.7852 11.6289 13.8555 11.6641C13.9258 11.6992 13.9609 11.7695 14.0312 11.9102L14.6289 13.3516C14.6992 13.4922 14.6992 13.6328 14.6641 13.7031C14.5234 13.9492 14.3828 14.1602 14.207 14.3359C14.1016 14.4414 14.0312 14.5117 14.0312 14.582C13.9961 14.6523 14.0312 14.6875 14.1016 14.7578C14.418 15.3906 14.8047 15.8477 15.2617 16.1992C15.5781 16.4805 16.0703 16.7617 16.7383 17.0781C16.9141 17.1836 17.0547 17.1836 17.1602 17.043C17.4414 16.6914 17.6523 16.4453 17.793 16.2695C17.8281 16.1992 17.8984 16.1289 17.9688 16.1289C18.0391 16.1289 18.1094 16.1641 18.2148 16.1641C18.3906 16.2344 18.8477 16.4453 19.5508 16.7969Z" fill="white"/>
</svg>
