<svg width="32" height="32" viewBox="0 0 32 32" fill="none" xmlns="http://www.w3.org/2000/svg">
<rect width="32" height="32" rx="16" fill="url(#paint0_linear)"/>
<path d="M16 12.207C16.7031 12.207 17.3711 12.418 18.0039 12.7695C18.6367 13.1211 19.1289 13.6133 19.4805 14.2461C19.832 14.8789 20.043 15.5469 20.043 16.25C20.043 16.9883 19.832 17.6562 19.4805 18.2891C19.1289 18.9219 18.6367 19.4141 18.0039 19.7656C17.3711 20.1172 16.7031 20.293 16 20.293C15.2617 20.293 14.5938 20.1172 13.9609 19.7656C13.3281 19.4141 12.8359 18.9219 12.4844 18.2891C12.1328 17.6562 11.957 16.9883 11.957 16.25C11.957 15.5469 12.1328 14.8789 12.4844 14.2461C12.8359 13.6133 13.3281 13.1211 13.9609 12.7695C14.5938 12.418 15.2617 12.207 16 12.207ZM16 18.8867C16.7031 18.8867 17.3359 18.6406 17.8633 18.1133C18.3555 17.6211 18.6367 16.9883 18.6367 16.25C18.6367 15.5469 18.3555 14.9141 17.8633 14.3867C17.3359 13.8945 16.7031 13.6133 16 13.6133C15.2617 13.6133 14.6289 13.8945 14.1367 14.3867C13.6094 14.9141 13.3633 15.5469 13.3633 16.25C13.3633 16.9883 13.6094 17.6211 14.1367 18.1133C14.6289 18.6406 15.2617 18.8867 16 18.8867ZM21.168 12.0312C21.168 11.7852 21.0625 11.5742 20.8867 11.3633C20.6758 11.1875 20.4648 11.082 20.2188 11.082C19.9375 11.082 19.7266 11.1875 19.5508 11.3633C19.3398 11.5742 19.2695 11.7852 19.2695 12.0312C19.2695 12.3125 19.3398 12.5234 19.5508 12.6992C19.7266 12.9102 19.9375 12.9805 20.2188 12.9805C20.4648 12.9805 20.6758 12.9102 20.8516 12.6992C21.0273 12.5234 21.1328 12.3125 21.168 12.0312ZM23.8398 12.9805C23.8398 13.6484 23.875 14.7383 23.875 16.25C23.875 17.7969 23.8398 18.8867 23.8047 19.5547C23.7695 20.2227 23.6641 20.7852 23.5234 21.2773C23.3125 21.875 22.9609 22.4023 22.5391 22.8242C22.1172 23.2461 21.5898 23.5625 21.0273 23.7734C20.5352 23.9492 19.9375 24.0547 19.2695 24.0898C18.6016 24.125 17.5117 24.125 16 24.125C14.4531 24.125 13.3633 24.125 12.6953 24.0898C12.0273 24.0547 11.4648 23.9492 10.9727 23.7383C10.375 23.5625 9.84766 23.2461 9.42578 22.8242C9.00391 22.4023 8.6875 21.875 8.47656 21.2773C8.30078 20.7852 8.19531 20.2227 8.16016 19.5547C8.125 18.8867 8.125 17.7969 8.125 16.25C8.125 14.7383 8.125 13.6484 8.16016 12.9805C8.19531 12.3125 8.30078 11.7148 8.47656 11.2227C8.6875 10.6602 9.00391 10.1328 9.42578 9.71094C9.84766 9.28906 10.375 8.9375 10.9727 8.72656C11.4648 8.58594 12.0273 8.48047 12.6953 8.44531C13.3633 8.41016 14.4531 8.375 16 8.375C17.5117 8.375 18.6016 8.41016 19.2695 8.44531C19.9375 8.48047 20.5352 8.58594 21.0273 8.72656C21.5898 8.9375 22.1172 9.28906 22.5391 9.71094C22.9609 10.1328 23.3125 10.6602 23.5234 11.2227C23.6641 11.7148 23.7695 12.3125 23.8398 12.9805ZM22.1523 20.8906C22.293 20.5039 22.3633 19.8711 22.4336 18.9922C22.4336 18.5 22.4688 17.7617 22.4688 16.8125V15.6875C22.4688 14.7383 22.4336 14 22.4336 13.5078C22.3633 12.6289 22.293 11.9961 22.1523 11.6094C21.8711 10.9062 21.3438 10.3789 20.6406 10.0977C20.2539 9.95703 19.6211 9.88672 18.7422 9.81641C18.2148 9.81641 17.4766 9.78125 16.5625 9.78125H15.4375C14.4883 9.78125 13.75 9.81641 13.2578 9.81641C12.3789 9.88672 11.7461 9.95703 11.3594 10.0977C10.6211 10.3789 10.1289 10.9062 9.84766 11.6094C9.70703 11.9961 9.60156 12.6289 9.56641 13.5078C9.53125 14.0352 9.53125 14.7734 9.53125 15.6875V16.8125C9.53125 17.7617 9.53125 18.5 9.56641 18.9922C9.60156 19.8711 9.70703 20.5039 9.84766 20.8906C10.1289 21.6289 10.6562 22.1211 11.3594 22.4023C11.7461 22.543 12.3789 22.6484 13.2578 22.6836C13.75 22.7188 14.4883 22.7188 15.4375 22.7188H16.5625C17.5117 22.7188 18.25 22.7188 18.7422 22.6836C19.6211 22.6484 20.2539 22.543 20.6406 22.4023C21.3438 22.1211 21.8711 21.5938 22.1523 20.8906Z" fill="white"/>
<defs>
<linearGradient id="paint0_linear" x1="32" y1="-1.90735e-06" x2="1.90735e-06" y2="32" gradientUnits="userSpaceOnUse">
<stop stop-color="#1400C8"/>
<stop offset="0.53125" stop-color="#B900B4"/>
<stop offset="1" stop-color="#F50000"/>
</linearGradient>
</defs>
</svg>
