<svg width="32" height="32" viewBox="0 0 32 32" fill="none" xmlns="http://www.w3.org/2000/svg">
<rect width="32" height="32" rx="16" fill="#0088CC"/>
<path d="M22.9688 11.0938C23.0312 10.6562 23 10.375 22.8125 10.1875C22.625 10 22.375 9.96875 22.0625 10.0625L9.65625 14.8438C9.21875 15.0312 9 15.2188 9 15.4062C8.96875 15.625 9.125 15.7812 9.5 15.875L12.6875 16.875L20.0625 12.2188C20.1562 12.1562 20.25 12.125 20.3438 12.125C20.4375 12.125 20.5 12.125 20.5312 12.1875C20.5625 12.25 20.5312 12.2812 20.4688 12.3438L14.5 17.75L14.25 21.0312C14.4062 21.0312 14.5312 21 14.6562 20.9375C14.7188 20.9062 14.7812 20.8438 14.9062 20.7188L16.4688 19.2188L19.6875 21.5938C19.9688 21.7812 20.2188 21.8125 20.4062 21.7188C20.5938 21.625 20.75 21.4062 20.8438 21.0312L22.9688 11.0938Z" fill="white"/>
</svg>
