<svg width="32" height="32" viewBox="0 0 32 32" fill="none" xmlns="http://www.w3.org/2000/svg">
<rect width="32" height="32" rx="16" fill="#7360F2"/>
<path d="M21.875 9.5625C22.5625 10.1875 23.0312 11.0938 23.3438 12.3438C23.625 13.7188 23.6562 15.3438 23.4375 17.25C23.25 18.7812 22.6562 19.9375 21.7188 20.7188C21.1875 21.1562 20.5 21.4688 19.6875 21.6562L19.5 21.6875C19.1875 21.8125 18.6875 21.9062 18 21.9688C16.9062 22.125 15.8125 22.1562 14.75 22.0625C14.3125 22.5625 14 22.9062 13.8125 23.0938L13.5625 23.375C13.3125 23.625 13.1562 23.8125 13.0625 23.875C12.875 24 12.6562 24.0312 12.4688 23.9688C12.3438 23.9375 12.25 23.875 12.1875 23.75C12.125 23.625 12.0938 23.5 12.0938 23.375V21.5625C10.9375 21.25 10.0625 20.6562 9.4375 19.75C8.96875 19.0625 8.65625 18.1562 8.53125 17.0625C8.40625 16.4375 8.375 15.625 8.4375 14.5625C8.4375 13.4688 8.5625 12.5312 8.8125 11.75C9.0625 10.9062 9.4375 10.2188 10 9.65625C10.4688 9.21875 11.0938 8.875 11.875 8.59375C12.4688 8.40625 13.1562 8.25 13.9375 8.125C14.4688 8.0625 15.0312 8 15.5938 8H16.2812C17.8125 8.03125 19.1562 8.25 20.2812 8.65625C20.9688 8.9375 21.5 9.25 21.875 9.5625ZM22.3125 16.9688C22.5 15.3438 22.5 13.9688 22.25 12.7812C22 11.6875 21.5938 10.875 21.0312 10.375C20.7188 10.125 20.2812 9.875 19.6562 9.65625C18.6562 9.34375 17.5312 9.15625 16.2188 9.125H15.625C15.125 9.125 14.6562 9.15625 14.2188 9.21875C13.5625 9.3125 12.9688 9.4375 12.4688 9.59375C11.8125 9.84375 11.2812 10.125 10.9062 10.5C10.4375 10.9375 10.0938 11.5312 9.875 12.25C9.6875 12.9062 9.5625 13.6875 9.5625 14.5938V14.7812C9.53125 15.6875 9.5625 16.375 9.625 16.875C9.75 17.75 10 18.5 10.375 19.0625C10.875 19.7812 11.5938 20.2812 12.5312 20.5312L12.5 23.2188C12.5 23.375 12.5312 23.4688 12.5938 23.5C12.6562 23.5312 12.75 23.5 12.875 23.375C13.0625 23.1875 13.5 22.7188 14.125 21.9688L15 20.9062C15.9062 20.9688 16.8438 20.9375 17.7812 20.8125C18.375 20.75 18.8125 20.6562 19.0938 20.5625L19.2812 20.5312C19.9375 20.375 20.4688 20.125 20.9062 19.7812C21.6562 19.1562 22.125 18.2188 22.3125 16.9688ZM17.9688 14.4375C17.9062 13.5312 17.4375 13.0625 16.5625 13C16.4375 13 16.3438 13.0938 16.3438 13.2188C16.3438 13.3438 16.4062 13.4062 16.5312 13.4062C17.1562 13.4688 17.5 13.8125 17.5625 14.4688C17.5625 14.5938 17.625 14.6562 17.75 14.6562C17.875 14.6562 17.9688 14.5938 17.9688 14.4375ZM18.5938 14.7812C18.5938 14.9375 18.6562 15 18.7812 15C18.9062 15 19 14.9375 19 14.8125C19 14.0312 18.7812 13.375 18.2812 12.8125C17.7812 12.2812 17.125 11.9688 16.25 11.9062C16.125 11.9062 16.0312 12 16.0312 12.125C16.0312 12.25 16.0938 12.3125 16.2188 12.3125C16.9688 12.375 17.5625 12.6562 18 13.0938C18.4062 13.5625 18.5938 14.125 18.5938 14.7812ZM20.0625 15.2188C20.0625 13.9062 19.6562 12.8438 18.8438 12.0312C18.0625 11.2812 17.0938 10.875 15.9062 10.875C15.75 10.875 15.6875 10.9688 15.6875 11.0938C15.6875 11.2188 15.75 11.2812 15.9062 11.2812C16.9688 11.2812 17.8438 11.625 18.5312 12.2812C19.2812 13.0312 19.6562 14 19.6562 15.2188C19.6562 15.3438 19.7188 15.4062 19.8438 15.4062C19.9688 15.4062 20.0625 15.3438 20.0625 15.2188ZM19.7188 18.2812C19.8438 18 19.8125 17.75 19.5938 17.5312C19.2188 17.1875 18.7188 16.8438 18.1562 16.5312C18 16.4375 17.8438 16.4062 17.6875 16.4375C17.5312 16.4688 17.4062 16.5312 17.3438 16.625L17.0312 17C16.9688 17.0938 16.875 17.1562 16.75 17.1562L16.5938 17.1875C16.0938 17.0625 15.6875 16.8438 15.3125 16.5312C15 16.3125 14.7188 16.0312 14.5 15.6562C14.3125 15.4062 14.1875 15.1562 14.0938 14.875L13.9688 14.5312V14.375C13.9688 14.25 14.0312 14.1562 14.125 14.0938L14.5 13.8125C14.5938 13.75 14.6562 13.625 14.6875 13.4688C14.7188 13.3125 14.6875 13.1562 14.625 12.9688C14.4375 12.6875 14.2812 12.4375 14.1562 12.2188L13.5938 11.5312C13.375 11.3125 13.125 11.2812 12.8438 11.4062C12.4688 11.625 12.1875 11.8438 12 12.0938C11.75 12.4375 11.6875 12.75 11.7812 13.0312L11.9688 13.4375C12.0938 13.8438 12.3125 14.3125 12.625 14.8125C12.9062 15.3125 13.2188 15.7812 13.5625 16.2188C13.9375 16.7188 14.375 17.1562 14.875 17.5312C15.3438 17.9062 15.9375 18.2812 16.625 18.6562C17.25 19 17.7188 19.2188 18.0938 19.3125C18.375 19.4375 18.6875 19.3438 19.0312 19.0938C19.2812 18.9062 19.5 18.6562 19.7188 18.2812Z" fill="white"/>
</svg>
