<svg width="32" height="32" viewBox="0 0 32 32" fill="none" xmlns="http://www.w3.org/2000/svg">
<rect width="32" height="32" rx="16" fill="#279FD3"/>
<path d="M24.0312 11.6875C23.9688 12 23.7188 12.5312 23.2812 13.25C22.9688 13.7812 22.5938 14.375 22.1562 15.0625C21.7812 15.625 21.5625 15.9062 21.5625 15.9062C21.4375 16.0938 21.375 16.25 21.375 16.3438C21.375 16.4688 21.4375 16.5938 21.5625 16.7188L21.8438 17.0312C23.3438 18.5938 24.1875 19.6562 24.375 20.2188C24.4375 20.4688 24.4062 20.6875 24.2812 20.8125C24.1562 20.9375 24 21 23.75 21H21.9062C21.6562 21 21.4688 20.9375 21.2812 20.7812C21.1562 20.7188 20.9062 20.5 20.5938 20.125C20.2812 19.75 20 19.4375 19.75 19.1875C18.9062 18.4062 18.2812 18 17.9062 18C17.7188 18 17.5938 18.0312 17.5312 18.0938C17.4688 18.1562 17.4375 18.3125 17.4375 18.5C17.4062 18.6562 17.4062 18.9688 17.4062 19.4688V20.2812C17.4062 20.5312 17.3438 20.7188 17.2188 20.8125C17.0312 20.9375 16.6562 21 16.0938 21C15.0938 21 14.125 20.7188 13.125 20.125C12.125 19.5625 11.25 18.7188 10.5 17.625C9.78125 16.6875 9.1875 15.7188 8.71875 14.7188C8.34375 13.9688 8.03125 13.2812 7.8125 12.625C7.65625 12.125 7.59375 11.75 7.59375 11.5312C7.59375 11.1875 7.78125 11 8.21875 11H10.0625C10.2812 11 10.4375 11.0625 10.5625 11.1562C10.6875 11.2812 10.7812 11.4688 10.875 11.7188C11.1562 12.5625 11.5 13.375 11.9375 14.1562C12.3125 14.9062 12.6875 15.5 13.0625 15.9375C13.4375 16.4062 13.7188 16.625 13.9375 16.625C14.0625 16.625 14.125 16.5938 14.1875 16.5C14.25 16.4062 14.2812 16.2188 14.2812 15.9375V13.2188C14.25 12.9062 14.1875 12.5938 14.0625 12.3438C14 12.2188 13.875 12.0625 13.75 11.875C13.5938 11.6875 13.5312 11.5625 13.5312 11.4375C13.5312 11.3125 13.5625 11.2188 13.6562 11.125C13.75 11.0625 13.875 11 14 11H16.9062C17.0938 11 17.2188 11.0625 17.2812 11.1562C17.3438 11.2812 17.4062 11.4375 17.4062 11.6875V15.3125C17.4062 15.5 17.4375 15.6562 17.5 15.7188C17.5625 15.8125 17.625 15.8438 17.7188 15.8438C17.8125 15.8438 17.9375 15.8125 18.0625 15.75C18.1875 15.6875 18.3438 15.5312 18.5625 15.2812C18.9375 14.8438 19.3438 14.3125 19.75 13.6562C20 13.2188 20.2812 12.7188 20.5312 12.1562L20.8438 11.5312C20.9688 11.1875 21.25 11 21.625 11H23.4688C23.9688 11 24.1562 11.25 24.0312 11.6875Z" fill="white"/>
</svg>
