<svg width="60" height="60" viewBox="0 0 60 60" fill="none" xmlns="http://www.w3.org/2000/svg">
<rect x="1" y="1" width="29" height="22" rx="2" fill="#E1B87C"/>
<path d="M16 6H25M22 10H25M6 14H10M23.5 23H3C1.89543 23 1 22.1046 1 21V3C1 1.89543 1.89543 1 3 1H28C29.1046 1 30 1.89543 30 3V15.5M6 18H14" stroke="white" stroke-width="2" stroke-linecap="round" stroke-linejoin="round"/>
<path d="M24 18L34.2506 23.1253C35.0543 23.5272 36 22.9427 36 22.0441V22.0441C36 18.706 38.706 16 42.0441 16H43.5C47.6421 16 51 19.3579 51 23.5V31M24 18L21.6584 16.8292C21.1271 16.5636 20.5636 17.1271 20.8292 17.6584V17.6584C20.9339 17.8677 21.1479 18 21.382 18H24ZM20 14L7 6" stroke="white" stroke-width="2" stroke-linecap="round" stroke-linejoin="round"/>
<path d="M40 33L35 47H41M40 33H47M40 33V23.5C40 21.567 41.567 20 43.5 20V20C45.433 20 47 21.567 47 23.5V33M47 33L52 47H46M41 47V59M41 47H46M46 47V59" stroke="white" stroke-width="2" stroke-linecap="round" stroke-linejoin="round"/>
<circle cx="43.5" cy="7.5" r="6.5" stroke="white" stroke-width="2"/>
<path d="M37.5 5C42.1955 7.42116 44.8062 7.32322 49.5 5" stroke="white" stroke-width="2"/>
<circle cx="7" cy="41" r="4" stroke="white" stroke-width="2"/>
<path d="M2 59V52C2 49.2386 4.23858 47 7 47V47V47C9.76142 47 12 49.2386 12 52V59" stroke="white" stroke-width="2" stroke-linecap="round" stroke-linejoin="round"/>
<circle cx="23" cy="41" r="4" stroke="white" stroke-width="2"/>
<path d="M18 59V52C18 49.2386 20.2386 47 23 47V47V47C25.7614 47 28 49.2386 28 52V59" stroke="white" stroke-width="2" stroke-linecap="round" stroke-linejoin="round"/>
</svg>
