<svg width="60" height="60" viewBox="0 0 60 60" fill="none" xmlns="http://www.w3.org/2000/svg">
<path d="M57 1H34C32.8954 1 32 1.89543 32 3V26C32 27.1046 32.8954 28 34 28H42H49H57C58.1046 28 59 27.1046 59 26V16.5V3C59 1.89543 58.1046 1 57 1Z" fill="#E1B87C"/>
<path d="M37 9H43M40 6V12M48 9H54M37 16L43 22M43 16L37 22M54 19H48M42 28H34C32.8954 28 32 27.1046 32 26V3C32 1.89543 32.8954 1 34 1H57C58.1046 1 59 1.89543 59 3V16.5V26C59 27.1046 58.1046 28 57 28H49M42 28L38 32M42 28H49M49 28L53 32" stroke="#1B3667" stroke-width="2" stroke-linecap="round" stroke-linejoin="round"/>
<circle cx="51" cy="16" r="1" fill="#1B3667"/>
<circle cx="51" cy="22" r="1" fill="#1B3667"/>
<path d="M27 23L23.7585 25.7012C22.6631 26.6141 21 25.8351 21 24.4092V23.5C21 19.3579 17.6421 16 13.5 16V16C9.35786 16 6 19.3579 6 23.5V31" stroke="#1B3667" stroke-width="2" stroke-linecap="round" stroke-linejoin="round"/>
<path d="M10 33L5 47H11M10 33H17M10 33V23.5C10 21.567 11.567 20 13.5 20V20C15.433 20 17 21.567 17 23.5V33M17 33L22 47H16M11 47V59M11 47H16M16 47V59" stroke="#1B3667" stroke-width="2" stroke-linecap="round" stroke-linejoin="round"/>
<circle cx="13.5" cy="7.5" r="6.5" stroke="#1B3667" stroke-width="2"/>
<path d="M7.5 5C12.1955 7.42116 14.8062 7.32322 19.5 5" stroke="#1B3667" stroke-width="2"/>
<circle cx="45" cy="45" r="4" stroke="#1B3667" stroke-width="2"/>
<path d="M39 59V57C39 53.6863 41.6863 51 45 51V51V51C48.3137 51 51 53.6863 51 57V59" stroke="#1B3667" stroke-width="2" stroke-linecap="round" stroke-linejoin="round"/>
</svg>
