<svg width="28" height="28" viewBox="0 0 28 28" fill="none" xmlns="http://www.w3.org/2000/svg">
<rect x="17" y="17" width="9" height="9" fill="#E1B87C"/>
<path d="M18 5H23C24.1046 5 25 5.89543 25 7V14M18 5V3C18 1.89543 17.1046 1 16 1H10C8.89543 1 8 1.89543 8 3V5M18 5H8M8 5H3C1.89543 5 1 5.89543 1 7V16M1 16V21C1 22.1046 1.89543 23 3 23H13M1 16H14M12 11H14" stroke="#1F468F" stroke-width="2" stroke-linecap="round" stroke-linejoin="round"/>
<path d="M21.5 16.4249L22.6831 17.6258L22.9799 17.9272L23.4029 17.924L25.0886 17.9114L25.076 19.5971L25.0728 20.0201L25.3742 20.3169L26.5751 21.5L25.3742 22.6831L25.0728 22.9799L25.076 23.4029L25.0886 25.0886L23.4029 25.076L22.9799 25.0728L22.6831 25.3742L21.5 26.5751L20.3169 25.3742L20.0201 25.0728L19.5971 25.076L17.9114 25.0886L17.924 23.4029L17.9272 22.9799L17.6258 22.6831L16.4249 21.5L17.6258 20.3169L17.9272 20.0201L17.924 19.5971L17.9114 17.9114L19.5971 17.924L20.0201 17.9272L20.3169 17.6258L21.5 16.4249Z" stroke="#1F468F" stroke-width="2"/>
</svg>
