<svg width="18" height="17" viewBox="0 0 18 17" fill="none" xmlns="http://www.w3.org/2000/svg">
<path d="M11.25 11.0625C11.25 11.3789 10.9688 11.625 10.6875 11.625H7.3125C6.99609 11.625 6.75 11.3789 6.75 11.0625V9.375H0V14.4375C0 15.3516 0.773438 16.125 1.6875 16.125H16.3125C17.1914 16.125 18 15.3516 18 14.4375V9.375H11.25V11.0625ZM16.3125 3.75H13.5V2.0625C13.5 1.18359 12.6914 0.375 11.8125 0.375H6.1875C5.27344 0.375 4.5 1.18359 4.5 2.0625V3.75H1.6875C0.773438 3.75 0 4.55859 0 5.4375V8.25H18V5.4375C18 4.55859 17.1914 3.75 16.3125 3.75ZM11.25 3.75H6.75V2.625H11.25V3.75Z" fill="#2B2D42"/>
</svg>
