<svg width="28" height="28" viewBox="0 0 28 28" fill="none" xmlns="http://www.w3.org/2000/svg">
<rect x="2" y="8" width="24" height="7" fill="#E1B87C"/>
<path d="M8 8H3C1.89543 8 1 8.89543 1 10V24C1 25.1046 1.89543 26 3 26H25C26.1046 26 27 25.1046 27 24V10C27 8.89543 26.1046 8 25 8H20M8 8V4C8 2.89543 8.89543 2 10 2H18C19.1046 2 20 2.89543 20 4V8M8 8H20M14 20V20C12.8954 20 12 19.1046 12 18V15C12 14.4477 12.4477 14 13 14H15C15.5523 14 16 14.4477 16 15V18C16 19.1046 15.1046 20 14 20Z" stroke="#1F468F" stroke-width="2"/>
<path d="M27 10.4546V10.4546C27 13.5173 24.5172 16 21.4546 16H17M1 10.4546V10.4546C1 13.5173 3.48278 16 6.54544 16H11" stroke="#1F468F" stroke-width="2" stroke-linecap="round" stroke-linejoin="round"/>
</svg>
