<svg width="14" height="15" viewBox="0 0 14 15" fill="none" xmlns="http://www.w3.org/2000/svg">
<path d="M7 0.96875C3.25391 0.96875 0.21875 4.00391 0.21875 7.75C0.21875 11.4961 3.25391 14.5312 7 14.5312C10.7461 14.5312 13.7812 11.4961 13.7812 7.75C13.7812 4.00391 10.7461 0.96875 7 0.96875ZM6.5625 9.9375C6.5625 10.1836 6.34375 10.375 6.125 10.375H4.8125C4.56641 10.375 4.375 10.1836 4.375 9.9375V5.5625C4.375 5.34375 4.56641 5.125 4.8125 5.125H6.125C6.34375 5.125 6.5625 5.34375 6.5625 5.5625V9.9375ZM9.625 9.9375C9.625 10.1836 9.40625 10.375 9.1875 10.375H7.875C7.62891 10.375 7.4375 10.1836 7.4375 9.9375V5.5625C7.4375 5.34375 7.62891 5.125 7.875 5.125H9.1875C9.40625 5.125 9.625 5.34375 9.625 5.5625V9.9375Z" fill="#1F468F"/>
</svg>
